<mxfile host="Electron" agent="Mozilla/5.0 (Windows NT 10.0; Win64; x64) AppleWebKit/537.36 (KHTML, like Gecko) draw.io/25.0.1 Chrome/128.0.6613.186 Electron/32.2.6 Safari/537.36" version="25.0.1">
  <diagram name="Page-1" id="LiSPiRWoztqD3Dg8rZ5C">
    <mxGraphModel dx="1036" dy="607" grid="1" gridSize="10" guides="1" tooltips="1" connect="1" arrows="1" fold="1" page="0" pageScale="1" pageWidth="2336" pageHeight="1654" math="0" shadow="0">
      <root>
        <mxCell id="0" />
        <mxCell id="1" parent="0" />
        <mxCell id="sSOp6Ibu6axcIfHXp6fO-3" value="" style="shape=stencil(7Z3LkhzHDUW/htuOfD/WsvwfihBlMkyLCory4++NNKO6uy6qT2oU4Z121AiYqcpEAhfATdS7/N2vH3745f27FH79+uXz39//6+OPXz+8y395l9LHnz+8//Lxq/3rXf7+Xf7up89f3v/ty+fffv7x23//8sOSXP/6x+d/rt/w72966RbjUkrhP99+EMMtl//95K/f5D99/PksX07y8zYHincRHyi+/tdZPKD4FPGeSDzrw7RO4sWJZxKvbxNvThzXvTtxXMhRdWUqic+o647PPvW3T1z3eX52s7HwRvkIj5NvYar8gLXMzubjbUyUD2d5+4sNn2ec5cutwPvef9tdvuJ6mvz5DMZ+qxHl81l+3hIcq3zsziGfwu55RN7OAhinyZ/XP5Vb5t8v8rY+uF8qb+vD9iPyc7e/Z3vI4Vb4fUU+3iY/j8jnW4bT6+XLrfP6iHy75Tc9T78NcJxefqJ9uvNe4i2x+znbc0m4nuk43Xd5Wx/YX/O15/Nb2iauNJEft46+vJ7lq/krXJ8i8va+GBbL2T/Ucpv4vuV8fmvf+GeVn4fHeyV/Pl9tt78qn4+f/E75eqsY7VS+74CAyO9itcj3uMFUKr+zZ5UveH4N95ztv9fNeczneNTbreF65rO99b4BJ1mef2zWP539Qzc0w7Dw/DwjbJ4nnf3ViJv3jWf/M8wD4HkRPDDMnsE/J43voxzI9ZW8PH+9Rf79Tp7wTzwg/l2+3SrLn/3D6OjfooLVMQ4P9kK+n+1zMNQ2eUG3Af1zVH8+I/rbeHiDuzzjH5M/r//Mh8W+kK9J5SfYZ1T/PM3/4+/PZ3ue9dbRnwh+NnnCA/do9SRP65mPpO9ZHp6/HNb1LA/rXxVvzHacuEv57vLGdmQcl/JT8bbJR4i/K11pqkABMqYLhUwWWhXiLgV6pO5sqB1R5FphqpMwBQzayZ3KhlmSbZsm2KZAbtq8iNuHSnZnB8G9AwEJw9kSWU2hUeZgyxpUgaBoCUdm9KQwSMGSVadAyVKp6k1nRzRn4DZFVYhwfAzdCh41BTJvg7fq8PpR6blWKG6n+7GV1wp2IIcqFHBhhojVJ/XDHK8VpqtNMchs4YipTwoUpQxEd6cwwFqby9NNgfKCVo5tuisMTIwNd+s+DEQi7X5cnhQSbJwhdfV8A7G1QXUNVuM4g9fO3qzV/QVyMwbuh3tpgtc9Kz5dCrBKBu8lYTQFArT9Ho+fFKj+17sr6w6sABpiT+4vEIY0yO5Ng4K6YfZanQK89AO03xUmprHDF0k5jzUYHroqkOczXK2uch6O51qhaWo0uVRnyFrjw8QTN+7n61kB/JJha3UCE9GMgWuNQLxKpqDl5In13nm50/AO02WcSwGOqAFshXwDGxeGsON0CvQXDLQmVWgEKqtm/RtXOaumYSuKwnlYKNUBrMoKUpiaFYPiwi5iSwXj9PR+KaHXmB5gxcNTvVKQZMwMnpDxisqSfXY8cY+o/JTOk29dUflsS+apyGusIHt+B/O2VDBeliMVG64AryB73mkLYuQ1VkQ773TjRuEjot0VuOi6ztf5pQ3fUNh9xJu7QsCU5hE+nuqiVOdfCueNM2BK/cuH632q7KLxTd04A9foWx0MNfiOrvJuOU/F70j7MNVVloJgfSlIudzwPr+0KnB/zytkDooXCh0zxQuFuttpVSjbfTi7mZwwxV8KZ2vNAati3pYSI7JlrWfTWJURfiQphFgOTynNOtNnW0qFN25oEWGVFdhriF9KkSPQ0OJ2Clz8GbpKcWBattz9eeMiZ4orZEk/t2E9eSXDolA5PnStEEfuMMymiCxmdmRNrTUmfoemzjhG3umqphEDm7cDWKaQKKBUz4XB8FC0DzmORuMreVnUcZynV/JSZ+kH7H2JWSXkYltrVZ3PVlEZE2e108owxoHuwuuZdf0z46p0OJ/7UcZS2nR91MRQMh5h7G5A7ICDcnoitj3Gnd30kCc8b6melA0ilrlXLnl+33DQgl5lt4JTuY1tsFfKegFrn4Z6Z1N5WM/h+hjhcAGvShJVn5/air2rRwmYsfWqFK+NfNbYxG3L1VWu+vybUtgQ+QH207om8uxAW1X5eNTeXtUjpY/KtIDFGhDeE0axOrU6H9GfGLp354XKctVV2SLajyUD7n3JX1XHs4hIw7JUQArCCYscZerzJNyv0vX8clpa3PokbHNa3hCdPLU6kub6jJAta2hOnro7w68nVY6zQ00JC8eWMmRdf+pB5OzALtPOHK8hMU0waEadmEbjcpp0LPC1/HA8O6ZZtOM4PeSRhlUVUyb0bwYXpsqTf/OE4My0J1fXzFjLjVPLaRnxm+UVUm5gmpRlCVJy5IJJrIqXMtMsXB8+Y3yPrpyeEY/FpAWcgnjG5IOUMjCZtIQiqTy2vMPhbh7yRAOaXpyqGEP7UBWtrSuYrJiAdWXac2be1JW3o53zQlxOSsecuWmdgPmlVXEw0y2rwqqJmWZVr7ZJA6uiKrMjbIc79vadj/VKXtJSPobFseczrmbRjuo6l0QYOEDskzyGabWFVUtAeek3RT6G5Y21iqxRfT0/sue12lKwrZi1bxnzho0t5hkzk04UxUQOE/lImp7kCea5qBgTsgSKq3clLAs4zsxWvr3xeYY7LwhrNaps1vPqPNJ+VWefbA9F7+Js7K0cnf3fac+WhReVp/NStHe6P49vOu9Z22Mbf5K1UbTxV1lpYxt/eHUeyd/+AXl3Xvg2jrBLLb5gGuLWMzDrzRH3mGCmx31ie6hoTW9wjqYlz45ny8W6hq7EJQjc9awa6Sri2aY078pkKd3Xwqwh18hjJonm9hnpOVOfPWMLYl3gU+hOmMpMVqr3GVfe5KemHgjdHSE2I4MkOtDAqZzJu1QIU4+qTup+x+lVata19EGGvFI/LU1TKyE69lXiGxFBS/0JiR3+SlA6spdXqbcrDdENQDtKSdcTbzg0Lb2mgyJxLe8oF4lvQLnubMT9zUGvlHEpLyelE0W0B18aithzzM4TRr4x2zRIRCytrNKZK41SDuLIr9zcK+5KU0R/tUqLrjVDpcjqguitcWm06PNg3JruSjGXpoMDecxvvlifxARqvULNOW9VIldENsMqrbvWErOnXSsKqc1RS50B7ae5K+MBS5etarwLWKpt3f9+yimao1YEjO79otVF/u2qtYQ3Xi5aV9R6vmqNofxF6w2puhfvu6H2utYhtUJWa9L9fqLduorVRt7REnl9hmPDBTxf4z5W48keiOARNYkN3Np2VwYDxvfVanetW5LP2lqKmCNPV8ThVst0WUvG8zuLxveCNYRF1XC13Q37V4u7yF2sCufbjvurV37xvCzersojUavq+g+2B8feYR784/7bU1LK8tVxd5DL4gB3ZPLFokRJxEvYrZ6OmR8zEym7S/TLTkH6S3FDsHG037il/WqtiPPxxccTnMUXTxYpVziF7EkfdwnuCvGNvMhN23G6Nlza7MPUosWjcvBKQbO9jiWvOdVdLKom+YupIzIWGXSjIAl9QsQYQ7iYOkIx6kqDSbNXGszLvdJg6u+Fxp5dLLninr8syZOlIxuTFfSyONibRzq7vzKYpDo1v1k8cn4HcfgrxWAuvCDCugmJU91f3XKwhW7XAl4gXgf77AnWjYENj1wGfzT2ZlPTzM64018x6MwReFxDuivwRW7vkfvcEZ7lSqaBaaTBDi1oj8K8yqEdQYPHRAxaHGw38IHazyvQuVtAm5fW+/EZE6p1C0juexV2sN3dXt+wZx1pe13k5r+gtxM7W2tz16wHb1w9HONdgQc7TdfrXo6Hdrq4AYATR+HM7Ib08Sy66YcATixFTD8NZOKFen+d8SnGvNLwNybxquvVnUzqiV7e+qQRIqNf3JikdR1N2S1LgVJix5tYtkE5brkyJkrqk7tiObEKOe5FvmcFStODO0E8UnLdgnarRIWndc/a7TTFrHWT2/0FSs361aEmX9ldreQRJ18Vn9QbTySurxv1/to0vbSfMDGZcOT6XUuB+E/94pI/HdE12cA5VzpArWqQ21zBb44uu2I9FTHdnL0V60khKtFqhW5a1qCQbIXuzZQMN3eAoHF1t28fsf5aobl+9cDIvmaJBFUgDLemlbjRIBuets7W6dxyH+5yeed2imNuzo5XIYobcbqqEfAOxXEfZ0fTyN3N1ulII8mOObAZArOm9zgFbBKOi30gN7OKdG5UDrYV/Ywjnq1zMUVpo+DnNG0UimavD9x4rZBcfOjc+w5XCoQSHfbuCJf8OC7+/X7cV0dihh8n1rH+48eVdcyl3TjSnZ26WNWZR67XgjbyQWn2G6t2BZNVrWV5ed+KECY4uMDjbIP2Ci0poOZ0cIM0Mu6XHwiUsDARHD7ie01+8BM384I6lcHIIijXwsA9odroxkM2HJ8clWa/xkkSj1/tYVQm62hRZfC46Kg55Bq3ib9fQtngey9ReyuDyQHxaE3d5bk3EbWXYVkDDZWLWllY41TxfaXQtsa14vuKf+gNsYEbz7nGzaK/klLKZpytl+dxuV6ex/E6+c24Xy/P9/e9PI8rjheDTvCej5Nn/+PkN+OcXXa2GRft5qOtcdT8vm4oChUGosb3GpAMl7ROVgaCY/cNi9KwvePGFZeyGQcuDao1zhzW041nLkzWcVyg7Th2PwyFx7uqPHcVvTzHdy/P4/C9PI/b9/I8zt/Jbz4X4OX5cwRenj934Cqam88peHkeV+zsbfM5CCe/+dyEGx+++ZxFuphmsnked4EBB83q+d187sONG1/sZXx+wSeR5yz8+cmd1+J/fnLnpfj/9ZM7LoeNTIh0/PwYsGee3CUuxszJ8WN59kfSJmcMWFFzlhbD5pgIh2Qr7y+dbmJicPJobd7nMIZRvnTYfOJAR3+ETYxT/nPAHO0PfKZsI2//eHwT7aePnz59+6Ta8//Xb6jZj759fy1//18=);lineShape=1;strokeColor=default;" vertex="1" parent="1">
          <mxGeometry x="203.8698305920925" y="177.76219858599495" width="405.77998239982344" height="398.3790845190812" as="geometry" />
        </mxCell>
        <mxCell id="sSOp6Ibu6axcIfHXp6fO-4" value="" style="shape=stencil(rVnbbhQxDP2afbWS2Lk9F/iPShS6orSolNvf47DKsLF3zhaJt+3UZ+L4cnyZA998vb/9cndI4evL89Onux/H9y/3B35zSOn4eH/3fHzRXwd+e+CbD0/Pdx+fn749vj/9/eV2SI5fn5++jzf8POECcR2gFH7NByH8efDuJP5wfDwTj9R4EY+U4744k8RFnOdxF8UzJVnEMzHvi1fisojrg7Qv3qnmRbxRArrHRFKMfAHaxEwSjHxD8o1EjHwH8sPUabW9+qoBgFBeLxAjlQIAlXJbAepAYFEOlNcrqBESOIHZ3aFQEAAoJCbg6nTLZUC3MRQ7xbwPkDitPgGaAh2cIGrW1c8pUQOBJGW+bwMwFZBk0mccnwFQaOQ4I3MDCAWUaEy1WUBEJ2Sb+KnA3Mx1XnED9BnvlwHqphXAiToAlGDzhytV4IeiVlrNqr4XBFC/ridIpohUEksBOVACwVcKpdWsuUDSKM3mgyrZQSzVSGENPn1FBSpVDY2+sirPMy8DCtX10jVD1qjdRqu+IvV9QEu2SOkJGTBfE+u4KpSAlVqZRtwAEdJMa7Y4qFlRArVug0+DJQBAD9bTmiGoNPdoVRq0ADzdk6UZaZM8LwPYxpIUGBoKaOYEgSnaZRaoDcCUAJF15SUD0HwAodGLDb5xAgJUSzMKgGbdAuEcgKzUbXgrIILgU0Cu1qyMAab1kTozZA/QVhLQigFDo0+rn0VrBzkdw9Zobgmh7RtyRLdlVJO6XLmEafiUDFH0aY6ut255BvCuI0zL16Zrdl3tADBcXVUcVAXs2pttZxruThTQ1h5d2bjhE0wwlc3QrwUkWHe9Stp+oLnBX1pbKEEqObNqZYcs4Bw3aANZqc/B6AxQEX13W0YHueI7mPBWvkfNt0+g0aSBBLqUowK7DU8DNV0zkyEa7Q5gWfRTnOAa5MiyVeqYBQwda+2O/xXgKoSyAGQyV4MGABGTq3KDZ5AfXB3VO0DHuUrdrrQnrhdQP0CudN2GsjEaCEY/40IDWinaebcxpr5gx1dlY9SejK6vWT+gXmDUjzXjVElEG6McrCqpKwPqXMXSRse9gO++NeDRUOP7+zMi2RshTOEdBA0cMYaUYi8BddLKb8yU4C5E23k2ntssvTfKRcMCuNtQKmU3pFQ0+yU7tBfcY+nAaxZABfczxW0D9RWoEx0jiSkpBc5NuVo2zgneIWc3QnRYgvxqQ/BawC9PFIAafL+eUQDagvoFkAIioA1t52XNB30FAyuNJZZRSeZqbndNZi6t0XVlEWdOiJBnxqrP7H47zDh25MoNsnFyscT16kJ0pT7Os2S8cuXKDBPI73QZm9UvjQcAbY3dVloBcByd55/JC+Jiy0oc4Q20bzYmwltpnoG87QXxyBRt/g8NgYGC/SiQyqzBO/KpWvkEXBxmYdrk8ywte/JGf4Y7xGAZVZ8UkAXBFrZY4bznWvooV+xj5fFmzOnTYIqFuafe6gHkrWA7Z4ZEGubWb1Mexn6YM+AUD/CD0j9+O7sqrj/+fqb7cHx4OH3lO/+//aynj06fBPntbw==);lineShape=1;strokeColor=default;" vertex="1" parent="1">
          <mxGeometry x="216.5920365770803" y="311.3851957305767" width="385.8087126528658" height="10.606846193261049" as="geometry" />
        </mxCell>
        <mxCell id="sSOp6Ibu6axcIfHXp6fO-5" value="" style="shape=stencil(lVlJchw5DHxNXxHcSZw99j8cYXnUMRrJIcvb7weYDpaaQFeWdOsFWST2BOqUP3y///zt7pTC95fnp3/ufp2/vNyf8l+nlM6P93fP5xf5dMofT/nD16fnu7+fn348frl8//ZZJfXTv08/9Qm/L7hAMSkohT+XH8agyP//8uki/3B+XOTHWOR7pRT25SO1uMi3QqXsy6f575SvhWrcl89UeJEvjSK4T6HRF/nMVNu+fJunb/KFct6XH1TaKh+oAfkof68AeUQFDoiZwqqx3LEDi8ZKbXVZqlQ6AAzrA7FaATqIk9Nq1Fe33AYUinkFJArAC6nPvzdAwFdi4hUgWnUUR8kGdmzEFQAq9WoBKBPymIG2Aeo883aoxhlpV4AOrlQKBQ9AySCR467UQGgUplLfA6iJYnQA4GlJd2/WCKxUuw0+dVwCAKZurNShWVuyNVJiqYETtMRVC2CQD63ZFI1MEV1p0GALSCC8e6QQHQBUjZ6IuwOAK3VxnAcAT/dGub0L0GclfStgOE+LWZHSTG2tfOppEN5DqlCwgACidUSKxkodxtKQwpgsIKMrSX/wJ4AiMIrzw4DFeEjZyhaQQXiPTsUnEGqiPI14BRhABw7TTVdKMwKkyRKuqkYFfuBMyWRcIQY6cJkZvAESNWAlAXQTfBGGN1eqq9K4BrAk3OqGBrsDS9NdbVSO5E26ZWqgYrDnGbPm3JbfCtCUxxxA5M3zw1RoT97Ul0Ad5LLId8PEYLEQeV5rcIUsSeXX50sXQUQvBOswDTnkAZ4U55rDgCMEMEyMMmUMaMZG20SwBzCEW6w6UGKyjWoF4CvF4q6E/DysHyLDGYZ9d5bUwyfYippwvRvWDwzbjqpgQw91HbGRYZJpdvfd1FwjL0yNdp02jHw4iIpu5FHH0dQ0cYqLNVv2X+CIpImz3qfjGexGakYqWGPLv+oc/N6ognblg/K1Jr8YlVG/ESeYQTJRxZn2ToDvCHi7wN36WRxXkeP8IFkmwdprmoa76AkolKrlkKID2hho32enNAqNQik5ACrz2Q6SutY4YEcGMCghHYIr8wwLmGd4OcDm7zlkjpDLe5YqAJQPngcLAK0MPNPOabL7N3J5ARRkJTct6AnA034eER0Q6fQTj5oVDZJuptIFF5qp3NQmALTR83PhEcBNnkcAN9sqAPjBT88CQNTNz+cKQGtGtwHIuMP5HYMAEHVrbhOjKYpWN9IfkgUg/qybGLfKRPngdz3SRhGj99ukhHc9fl91BHAbMQWAK/mdmwKAp/1WT5eb4Ep+byiACE7QzaQDoGjV3aep3gM2FN2uumgNaB3bXamMcLbSDbGpS3m6cncHba6E53PdcpsEqnDh+7pL3QAdMrKYbbSqK0Fdiq6LlgBfToy5stjk8azUJunf5NvkHrfzzca2JCCiMtkGXsUT63bbbSHR4EY82fv0iidim2pCCgp4frCZJoQU7dqCffmkcxCWT1YejUlhztYbpQ94hRHshkRJPlQ4DiuP3/6ZiGZcKIJl24xrXbAESXdc8P5mqhJujO1j5RPkhP4+MteCDHb6Dj54/nvfvh7Jy4fXV71fzw8PlzfF1//bV8Py0+W1cv74Hw==);lineShape=1;strokeColor=default;" vertex="1" parent="1">
          <mxGeometry x="205.31444919628325" y="422.46908474642737" width="436.8627979075229" height="22.224912060468114" as="geometry" />
        </mxCell>
        <mxCell id="sSOp6Ibu6axcIfHXp6fO-6" value="" style="shape=stencil(lVnJblsxDPwaXwnty7nLfxRo2hhNkyJNt7/vqMZzTep5FN8cR2NJXIZD6hDffL//8O3uENz3l+enL3e/jh9f7g/x7SGE4+P93fPxBZ8O8d0hvvn09Hz3+fnpx+PH09/fPoyV49PXp5/jF36fcN45cW7Agvtz+spJrP++eH8CPBwfLwC9SyxqvZfayPomrav1UYoj64t0r9Zn6ew8SWJS65vURNZ7yXq999LydUBrUqoGZAmeAKokfQOPn4gEUKTpI4UgntgIgNw0IEvuBJCkBQ3o4tiRgqSovRYkk0vXvkXBGVDEFQKo4rSVYpfMAFmaPlKKfIcs0QAK9QMA3oQekoPEHgBOmzVHSexIaYvlM6Bs0XUVoLMtw0rsDgBkBSiBWwkAHXwlSVgcyQCKeMIAO4BKM24HcCadq37QVqqOmzVbUqogAQYoNh8qgo9dukg0OyR+BxhROw6HXN1BRytSyrMUBUfo4Ktt45F9QJSqzdqQD4RmYMSoa0nzlJdK2/59BgTK9gi1oGkG1BYCBRiqbJmGd5n80Hh4l2wLKAoAs1KBWSdAJ44bGWxKHGocSaDipGpPt06LNEjF8FJ3NB8AMMzXAy0ouVmz9iiBA6rZIXFAt/nQM03R4sUnC2BWGo7TJACxUpmnkaLa071S9kY+BJ0PkE+ZKAEADN13TpWgXntpXnZhpR4sgAUfSmCbAI1YCWW8dAvoxA+QIkWb9ULF7iKGRvXTFuTWPkzh2mnNQsmKdn0hl3ZTsHZJdH1wdn0g66P4yaYsGbC7uW+jnARJa8QVACwXIMu7mwCEuZOzRX0BgFgrNx1pSKnpSJSIsy2Iw6q8vtUp25jbAJjTk8UFxJqbAokFHgSnEeqryK4b7b4ydyD8TWgs0xMlebo1YwB0YP4mjqlTueIk5ifi5iw5NdELGr59fZnSk9WFONEXLzx5E1GvrGx14nheOrv4YtczOvLO6rxF9QfA9AwLfTF2MACuYPqkR8DhxGXd1s2hwVjJ8dv2FyqPZbKfak7jfZXvllGHUiWAELYsvNTCDFBsWRtqmwHAbkbapq1yXa395tJh8/w+INvQGz0JkbaxSjQNgKOxGtvUiPG+CgDbiPHODQATq4veEADDL4vuE5c2OnLR32KHdFMHHUFwOh8WPXqcQmMxBdgB8HzYAfBWbwfAZyU7AD6NiZMOW8x7BsAMiPhEKU6iZzGzGgDt6cVUDICqAYu5W5rIfjHZS96adRySaZi0+fWV00mc2AiAMf8kBTd1K9zCuUW+plbNOHMxwwWga7OCnpn4zLCSzrgxh2ZHCjanx6SbXDpPA9MxSydknOumoi6G9bynL9qqmUrP4mxJ5I8NWG+yhz9mjBmDNil/LBm/bx9XApswBKtrHXUA6KdVs94TD5dmk9/x4XCwzYKjQY06ZiKIC3/UbtMqLNZXq5H4ebq3RYfft0/Tc25PqOo6+Zc9bnWbkjwebn6dewUAH/4/Bn46Pjyc3hIv/28fD/HV6eExvvsL);lineShape=1;strokeColor=default;" vertex="1" parent="1">
          <mxGeometry x="336.3720258619603" y="187.39521084833484" width="7.043060786632395" height="376.3479057004505" as="geometry" />
        </mxCell>
        <mxCell id="sSOp6Ibu6axcIfHXp6fO-7" value="" style="shape=stencil(lVnZUhwxDPyafVX5Pp4T8h9UQcJWCKSAXH8fOVuejGRPm31bBvfYsqRWS3PyH14fbr/fn5x5fXt5/nr/63z39nDyH0/OnZ8e7l/Ob/zr5G9O/sPn55f7Ly/PP57uLn9/v20r269vzz/bG35fcC6Qtw3lzJ/LE0Pe/Hvw6bL+8fy0X1+pGrHeUgzH630hK9/vydnj9aFSyGJ9JF+O1ydDLon1mSpaXykXeX5D1R0DcqKiDA5kwA7FUI4SkCkkAPAU5BWxDyoCBIpeAgJ0AgNqlQB2SwWASFbekrdUgNsYoNzgsd8aQB6JIyWDwGOAl34IyyNpQKB8HSCTz9cAoiGDbAgDwFFEt+SoSD/E2PNpHq1VX2vMlEAsZb4TmW+cURYcKRsqCuAooYzL5JwEsA0g4/jfSe2QOykcAYzaocJYSmx0kKTBsYSOFCjJHbKnAjKOAVHakGPf8xCgjoRZYwKokJfSwBrMVBFd6wiwmFtHAJM9Mjrq0GgZgvyQ+vs2QMQ7cPBJP5REBl0rE2PQgIIAVQdfyTCnWwJJui8F2sCR49UOW5YfkUCVRlfOaQ95KSQNQEaziVXWuGopo4JSdQWqrpfJKaB6SvKW+AmK1pooy1uqm7SZAzJlGa2VeQTcUi1duewABdAMA5K6pUQB7cB+VYAtfo8AWR2J4xcArNkq1IaoeIvS68cOEJHVQQum/6ecx0aZAAqqu1Zr1rpF/DwhPFml4Qyu1GkLhf0WIF7jmBFsBPA1V34d4JUSoAFWxnHYIQCyZIAddkCqL1pNNOx8JERZjGijWcQhsnS6QrTwAjYwWfphByR1cxmuFQOY3kO45kjMQ2bYARnNOZyGHdC1tsgZPI0c1wJhyCAUGsxDPmgACj6m95E2UHhz5a9OA1ACcZVTRi9zdLxXTANN2Y45CgAxkB24D1EZ638lvxdkGbZIeCcdXw8YawouEWGsKbgIRaO7mkWZY4Au1RG2ckxMJmiAQWxsdf/axADIoDZ2UI7z0NMhDfHtYEIwwKgj2R7xc0AYwtt25pkDnBbHdRuOzAGbKtwJS9S0+4Fcm3TFADXaWIhjP/SvC/ndbEgagAR+sJ1K39lCtGtVNuAmhQFqRLZogyYA3GhNALiVGwGLZrEBpNGLdrQBZCwtGt4GkPmwaKnDIOIWTTsDvNyBe7WESCB0UtkPHlCKRkrySE03YppRY7I2PEFE5jtX78cz4JbauEfNT/kJ4KVkdX1oIyZUdp1uCNoQC5VdPwAWhd3rvmkxiJsA8KivASRVLoaJaWhH27gSA9QAaDEQZYAafC9GrgxQjlsMddlxaurVxsYg+Dg0onRcG0wjJVB6CdyPvoHRLLCyJGMb4GwwDOHdxvfAaJ/14KHA8uCyFroRWmCjrg4eTh2SVuoWZqfRjGQ6/mi5UctRpTI6MVkvgMNYzdhb7Z1fva45BnJj0irSdNE370i0JDRQHFmrdTPmII7D8fTo/bkPwd93fGf0nNHAguyc1mpbMzNf7/W0wPRZ63z9td8Bl+v5x/+Pjp/Pj4+Xb5b7/+uPlPzo8oHT3/wF);lineShape=1;strokeColor=default;" vertex="1" parent="1">
          <mxGeometry x="470.1922070436465" y="176.98494380425132" width="11.557438300198783" height="400.8796389747213" as="geometry" />
        </mxCell>
        <mxCell id="sSOp6Ibu6axcIfHXp6fO-10" value="" style="shape=stencil(lVjbUlsxDPyavGpsyddnSv+DGULJlBImpLe/r9yMQyyf7Alv4eC1LGklrb2Ru/fnh7ftht378bD/vv29ezw+b+TLhnn3+rw97I76ayP3G7l72h+23w77n6+Pp7/fHtrK9uvH/lfb4c8JF4Sqbyh2f09fPPn0/8PX0/qX3evl+kJlXB9I+Pr6KORkWF8ooPWZUhjPIxTkOiB5cmkEVOIAAIHcaIEjdDklKnUAiO9bLAMq5dFnSZTqdUBmSm4MqqcaASBSNFlIVIEPOVEeAdFTyABQyI1Ox0iCLKjTYx6iUsVdBxRPnAdA4s6VZQBT5REQemaWAaFT7QzIFAsARJvp7Mh5ACg9r2eAsgtZqJRGpzUzApyuzvqgmUkgcQqoI5c00B6wtXqK45GKkAAfqhZkHAGpf1kGaH2ZIxXKCKD7jWzVQyYE0LyOeaihs2sZMCWu2QRR8sn2PbWZQJR8oTpZqCDT2oV4AjCoOIm282mgM7AQMnGxgADonRylyQJia5Ze8heAiJqA7hcsANW05tVFGyXUyGq1A0gT5zHANDIFoMTpAbw5Ei7R1jVMlCoJiFLOVIoFZDSytOJGp73TTgZM6DgwjWkNIcW245VD6eTnT7nNrhf9jYH1eSIHTp0CcrUARA5mymOYVuinUiEYC5jgKsgcWwAqoZi6ermxSFWexKnmUBvQAWIrAjeaNlLERgm1Mo16mQAwcR/kvLUffx5RyLM9FJwRKjwNAE8hJXgwR8JzTsW5kXErk5Sli7YbZ3WbQiM5VtSAAswFYkVvsAoeo5lwVXPu+92omXhK3IoqE2d9WNF9wiRGu54VyDJALMFXtKsOdxOlpo5BWGVW+Oer2jIgW6ebwkdR0rCOU0iHRkQWku2uqkCQwtcoGRkX8JVAEyejD80mmkHJOq0N2gMfWgGNJfpRIVebgBmktWucZUDo99uLGy/i0tQrz3Ji2QN7kVN7IMtTl/Twfj8lwPfxteysFTIOK1ZK3ixHZy8k0SxHU8ezve45yAVVC9Xuj5xV7pheihVVexpJdj3o1TJx0/UKvVbxwUYfXemDs3PfQaZpsU7xKaCxf/rtaXW9/vh46Hravbyc3sku/28fxvTT6VFN7v8B);lineShape=1;strokeColor=#FF3333;" vertex="1" parent="1">
          <mxGeometry x="254.95441430889218" y="192.95403806244178" width="6.5842442153800675" height="116.48405418166772" as="geometry" />
        </mxCell>
        <mxCell id="sSOp6Ibu6axcIfHXp6fO-11" value="" style="shape=stencil(nVjZUhsxEPwav05JGp3PhPwHVZjgCsGUgRx/n944MtbsujfO22KmJc3RPSNt9Ob18e5luwnu9e2w/7r9sbt/e9zop00Iu+fH7WH3hq+N3m705mF/2H457N+f749/v9xNltPXt/33aYWfR5xvUvKECu7X8Rcnqfz54fPR/mn3fGavQVwb7INkd9k++r5ct49SyPqxSguDfRFH7FMSr4N9k9wu22cnebT3cCAQQBI1gCyBnCgjom6MkBNPAAUHiCMgSowEAJ/9CEDUKgEUiWkAqPIdWg/6CVCp09WJjmURVVwiAG/zEItUUkg1SB19SEGU7RCtDylLIk7XJGUsPRSLJ7VUs9Rxh4ywZgI4uXgCZO5DlVRHADLNjtQsPYvnYW2SRv6XKIkAmhM3Fh+qi2UagGgA2JMD2giYioUkrsHFsZaQyr97LgOCFLMDypuIQAPjxuLDIRPJdKud8idA6IdcBkC2xiO1KJVw2jskYiymVno9XtrCSmXliQBfxmKalmBez5Rscot4DUKYRADQSCKgAjo6fRaHZSnLnTBnW1TiNeRYgwUwRoCSpdm4MjkG6UuxACUFDkA0gCKZ+JCL7aItU90o4FyxgEgSgR4UmgWwPKBDmB4EUhUSJXC4tmsAkAEXrzkS1tM6c5rpRu1d8zys7Eio5hlHqZTNZaD2+WMZUPr4dV58TAWi7RAr5Y0OEdUCGIHQeP1YfKscrUsyQLwuOmNQo3HFUFZnpGZDGRgUso0rU/ypk5tiKlTA/wtgnNa+xDIAndyE1XFh0j6N/GNfxA7hqs6bZ410pbcDkEfAyvSAKBkVWJlPJnEd87AyAQFgSD3NWMzpYq8QKEfGh0m+x8R95P5SC9LZJJrYkWpX97NZN7B7U7EtCNM0vTfl2fgdupBcqiUjfXGFD7hhmCuEime15CWMpYFbjRKnU7OzLu5NzOl06lCnm1mjVwjExM/ufoVECTHJZgdHRwFcwA2BcH9lk6ii745H8pAFonzq7BXfu35tWQSEZIuvUi3G/tG+ISihT7AKECQQc2dfQHxn3wVzU9e+T8mXzM3AKoGkaxZLRxuhlxKNOZu31c4vjspKmh+G5amKC8acCa+fPcXwKQFlEOxTlWOxARmTPT6RBw/Vteuz0evap7N1e3x8vNM97J6ejs985/+373r46fgmqLe/AQ==);lineShape=1;strokeColor=#FF3333;" vertex="1" parent="1">
          <mxGeometry x="285.11108474397383" y="185.50374453302027" width="15.492733031536545" height="122.49279711532608" as="geometry" />
        </mxCell>
        <mxCell id="sSOp6Ibu6axcIfHXp6fO-12" value="" style="shape=stencil(lVhJctswEHwNr1PYMTg7zj9cZTliRZFcspzl9xmGBUbAUE3pJtPTwKyNBgb/9LF/ed8Nznxczqfvu1/j62U/+C+Dc+NxvzuPF/k1+OfBP72dzrtv59Pn8XX++/1lspx+/Tj9nFb4PeMsOZ5AzvyZP0Ty5t+Hr7P5YTxemQcyrbklzrfNM7nUmBsyYHVrydtu+eKBfaTiGvtAHG/by/YlN/apfli3TxRbf7h+WLX34m4bb6HkgH3q7a2hAAIOskFpAZYM8CgkYtsDQrgNiJZy6gEZ5DRKjWMPQElNjrjrIUcWBJ1YZcnVPde7LpIJPcCDHdhQsj0ggEblSCkrAEgrF2LXZymBwhXfT1quWVi3jxTbJHlKwKHCvb2BRSiFTBuAo4zWL7WRr1obMYsActtHsoMBwyOA0gJknBJIkTUL+yxkJ0Fgn0oLkF4MqAqlerAQhrRqgQDf7lDEJVQHroS7ABjHwLWTF0ChyACQ+7xKbzkUdO5biRM55FLuD53syYOBFoBtmykyGexSB5iYEzWTckm4P6E6qKCtp4wqrdIa8ACpusnRgCJQjWG35q3rPEkBoG3d2jZT3pjPdgM5HiOo8sp8hlwFwZ0UkDYaSZFMZqhINI0Jk2fsUseTJePpUUQsSyBN9ThAHQ0lkUcuqbNHSMk8dLoxkwfDoM9PXubpzhNaAAkUTmuACYBkiVIZAkDCR+sYAaA6aKUkWTKAY7QWEwASPlrtMcO0aj0pgAIKpxWr1D6CoFcksegAcPxozV1EsQKXtKif+vehW4NMiEXEpK4lMoPmkWvPFbXdd62SDZAaU7e2EqAIkBRxnyKkb2XautbGmsEolvRQJxlybQVkXBFfmJruhecjvOhpobe5fnfwBKjOlT8+wA5S8bqt9XvxLFMBCFjVy2KxoPohQTK1VcPe90iw+aYgP/6/R7yNh8P8nHH9//79Qj7Nbx/++S8=);lineShape=1;strokeColor=#FF3333;" vertex="1" parent="1">
          <mxGeometry x="222.9186555214144" y="230.33072671632" width="115.28389355140553" height="3.3384855322037765" as="geometry" />
        </mxCell>
        <mxCell id="sSOp6Ibu6axcIfHXp6fO-13" value="" style="shape=stencil(nVfLctswDPwaXTF8Azyn6X9kJk7tqWtnHPf194VGQzUkrI3bmyxzSQELLJZTfHjbP73upuDerpfz193Pw/N1P8VPUwiH0353OVz1aYqPU3x4OV92Xy7n76fn5ffr07xyfvp2/jHv8GvBecpuBgX3e3nhyC0vPi/Lj4fTu+WFcu6We08lbq/Xv2PoAYUKA0AhiT2gks/bgBCISwfQEGIFgEqpP0GT4NI2IDIFPwKS3wakTMGcgLKU4w0AC6DBEdcRICCthcmnEVBB0BwomqArSCsrr2nkIYGgZaVpZZqpghgkmuLL5EGxSqEwAEJ7cxsgxH0MlQqgoQaS/gD9IBBy1QCHbiAG31OFcp+i1Nrp9nptFRnbk0FKFTCSFhvvW4DaV6p2ByMBcKugrDlSHkHl6RHSN3Sp5AoE5L5UJWDapFXySnOAlaeAyD1AGvNbRJfhhEqM8spNglZApoSCLpT6E7TaYVoLub42OJKgLOWRh6xBoxgMIIVW73d+UuC2xZ1BqwIEoABzWvsGVUlAMWsx98UayKGGNoWhEaPvMZUnTcjvLG2dhg4FYJonhhbSvf2ZpE2jOyWgJJwkIzIslFD3GBmTCmfPrJM9QIlEs+eGEDtsfP4DYYaDlm8B7XBj+mj1oYFo5pvmKaOBaCaoblHQQDQzWrdAxsS6APFwoFifwbUZujudjAIEWVbjlbhClbFujNeS3/R7fW1o3hxg2jpKBXgAsJ5VAUj4ZleczAkgaPXdNkvIOqizGIKeuxrEUAzRiRI6gMJgAxJkwRlZUh6BaLhmydfxVqGF1lboNSYn6AHcKGKqqxl+/zCqkoezyuh2jG1YbK0f7hgZuiQ39pkXaJ6duel5qC2O8sDvB9sPahoaHxvV4/vB7ODu/3gN/nC5Pvy9cb8cjsflwv7+//GGrq+W2318/AM=);lineShape=1;strokeColor=#FF3333;" vertex="1" parent="1">
          <mxGeometry x="226.9845536348082" y="259.38937825208495" width="102.47031223492968" height="4.345246468368373" as="geometry" />
        </mxCell>
        <mxCell id="sSOp6Ibu6axcIfHXp6fO-14" value="" style="shape=stencil(lZdNctswDIVPoy2GJPi7TtN7ZCZO7alrZxynbW4fqCprEZSe6p0s4TMB8AEEB3542z+97gZn3q6X8/fdr8PzdT/wl8G5w2m/uxyu8jTw48APL+fL7tvl/H56nn6/Po2W49OP88/xH35PHBdKPFLOfExvDJX058XXyf54OM3sfabsGvtIbNbtQyIujb115MI6ED3Z2AKZol8HkqWUG8AFCgyATM42ADMZtw5kcanNkTcUQQy5UA4tkIkBUCQnqQFCJGMBwBqITB6twBTbLCVDAQMqhhShMgQobVqzI18w0KY1x/pmGfDELVAkBuRSJNtmSdZkoKWStfiKaCmuA9YYMqYlcq2otSWSWqJUeS0DofOpUAAlJ+oLRQN/S2QZcBRZAwVEnYIOepaH5apOFGy3BBB4NFocYxCo0YSqzhnAIOrAuqoFQDEER0nFkGumlwHfbbXoCwHigIoh1SpczpJoI2sgghiSq11iBnhQQtl0WdoA5LO5xyUpydABKOjxc7cPKK2yr7nbB7RxAnh/jzSk0USjASS+YhdKDsk7S8l1XQAVUEq1cf13jcofdlGjNhDdQsmhRhN6beBWJjWqtxo3S6nRoFySfgvO9mUAreDJK5fwESEnuQ4aH0JB5pN2xNo45kLWDX/jIB2BtgtsHNUC+LuGgTGGVt8b44ZII7UrjAMNWiHWEWw+MqG09lOcRAWy5Lt9kLEPScM7Mq1LMlhaUKMc6uw8G13RYOmS7vcyHCcA2KILSMZvD1yyhlgNlrBCu/HHVg9XzG3rjhzzoDqtdkbmbqAJri30Zu6BIqJuXwbeTCQ1pSh7tLv23zXkZm+AfOQzO20PUi9aMVnbg3Cd9Fqv/Qf+iHi9tnegSXDUXUXSD7TAWV9JDGzV915Vt+3l4XYvfjkcj9O1ev5d36Pl1XQH58dP);lineShape=1;strokeColor=#FF3333;" vertex="1" parent="1">
          <mxGeometry x="378.191685320897" y="194.58525181740242" width="7.089494493411621" height="131.69737662728687" as="geometry" />
        </mxCell>
        <mxCell id="sSOp6Ibu6axcIfHXp6fO-15" value="" style="shape=stencil(nVjLctswDPwaXzEkQRLkOU3/IzNxak/dOOM4ffx9oWoomZC1dnqTZaxIvBZLbvjhfff0tt0E934+Hb9vf+2fz7sNf9mEsH/dbU/7sz5t+HHDDy/H0/bb6fjx+jz+fnsaLIenH8efwxd+jzifiNOACu7P+MZR8f9efB3tD/vXC/vA5HxnH4nLuj17ktjZF6px3T568r29j5RkHZAcSe0A6kENAFCp9h4HoQxcyPp3vyXWLYEVhCn2K6hXAQRVpMV8AggJrwOKusgdIEXywIcSqPRRyo4Y+FASZdcDMjkHAIVc6AAypfIqoOoGeqdFa7ECQGiVMwG0ljIAROtD8bD4aloUa6SIAJlSH9aSKYPEVaFqtlRhtdZCRTqAhiGiFSrl3ANiy/1VgHeuJXZCFPJ4CY4WgMpVvY59begnAs5cjBaAelSLSRYrVNRB2Tb1RRzWWiizXaIAZpJKfrGnBLyWTFEswIHUSbRUpolIwGsFiPFBYPlpS5ZgAQw6QqbSmQCZCgBoS3K1gAjCqswUigUExH21Tag7AZVbcd65pYEGPuX00NWLPKCwztV8Z+IUIIumRqUx9LyJEi4+JUvrNC5vJS4jHW400DBSesDNHuVFmG7QgGuD+U6i0VEdFisgKhuGmreJQGSpPZoXTY3o+H8A1bQcHhHqg5jawENImUx6pwvOw6CAzFzMbY6t8YwJq47qBEpDAYbwldDdjRX6KA2Ejuk7GQWkLZJgHkLvtEqmgPKgYronJhVlSGPlYjOtsi8C2lCta1ScCksGicts9YlKV6SxVH7HvpZUHEfQcYmvyG9EG1FnVr+Cnjk8KA1eqLigWwKAkO0Y1WOUBwLfS6PSqYHgoWbi9ikLkIqdPcN5SmA3C72nVQcy5ppr8wkRqW5n9ae+QPLTZte1w9P10FMtxjwA82gz62Al5Jb22dyBblGGWJiDr3vX+OPCHmzee3toc5CAPFvGclBUzCfr2R4N8M/eFdy214f5YuJlfziM9xqX/9uLDH01XoLw418=);lineShape=1;strokeColor=#FF3333;" vertex="1" parent="1">
          <mxGeometry x="413.377589597839" y="188.97694661395235" width="18.118793587863365" height="122.39883100711029" as="geometry" />
        </mxCell>
        <mxCell id="sSOp6Ibu6axcIfHXp6fO-16" value="" style="shape=stencil(rVjZbhsxDPwavxKSqPM5Tf8jQJzGaBoHTnr9fWdrKPWSziQG+uaDs+IxJEe70avn+5un7SaF55fD/uv25+725X6jnzYp7R7vt4fdCz5t9HqjV3f7w/bLYf/98fb4/elmsVw+fdv/WJ7w64iLEsICSuH38YdUJLS/v3w+2j/sHk/sq8Rs7Tuxj0lU14AquRDAkJgsgJ2Av1tZA5rE/jZAs2iygBzeBuQo2iygVAJo0oMFVBJDUZfWJo2cUOCAA/RE6hakDZvWkQkALtU1IEtWAgAR1ieglCyGihD7GlBFCaAFSXENSJJJ0C1JWFc6BgmDALKE9QldAiFrKzLWSUIEhEmt2zpn6YSqPdhmUKnk+T3Nv18DlhGJfZZajX0kpOhtpm/ah1nD8/ZgQDD2leRzJEnV2BcS78iWQmGOm/P2TYb1P7Dnd6lmekklhBvDMRScZQcMW4ClYqQCAIy1R1qnj+fnaQh2xJckjZACR3RD6i6FA8qapeChknEHQFgHgcJ3FnWfff4K6NJ5odt6ZONMGnSznTmKKKH2qLbVOu99AAw3mkpmLlVXOEwj7pIBYHONi1zC/CqscC7oiIFEBqpPa+YN5OqG/mHPd8TAALuIeW2uuQ9SO2KT8/40zaORjrAz/Qn5oLzdzAjArlaWJDdksIeYyPNjDIO8M5fcnEQhqUtuEJ/k4X8h3HJYEsHCdttnKT9bt269AaBkv/n9uaSa9INf0MvgI4T1CgAAJnm8xECTMzXsNQwmZWQqzImkoTNvH1RhA3OMyTCn81AZpnu8kkRlChmtXqt2pXPAq2EkOl2kt5E3Nou9osc+CRfdGZA3dlHytxIAWAz+3tMS1WP+ZgVAJif4u1tLVBH72yEA7KLk759Ia2QCy91wASiEre4KDb7TA+x+gP0g9mHeuk7smQaFxFabIbYdgo0X8rAS3oW5kV/tM925YbL4RPYwcej1rdK94PdtnavlY/6Atdx/E6+Wd/w3+YRiUGpv6gUNcxEfllc2TJFc+ErofXt8+Pf+6W738HB8fXX6v31fhZ+O77r0+g8=);lineShape=1;strokeColor=#FF3333;" vertex="1" parent="1">
          <mxGeometry x="334.9952474694287" y="226.76170132679215" width="140.83109137901488" height="5.676548518290701" as="geometry" />
        </mxCell>
        <mxCell id="sSOp6Ibu6axcIfHXp6fO-17" value="" style="shape=stencil(rVjZbhsxDPwavxKSqPM5Tf8jQJzaqBsHjnv9fbldyLXI7NgL9G295kgUZ3hoN/zwvnt6226Cez+fjl+3P/fP592GP21C2L/utqf9WZ42/Ljhh5fjafvldPz++jz/fnuaLKenb8cf0wq/Zpyj1iZQcL/nF4Wi//vi82x+2L9emUcqPJhXqmnZvFDLypzLsrkP1OJg3yiB5X2lXAZ77yi6ZUBI5MMI8OTCMoADea8BERyBG4WsARW4FDOx2iGQ42VAYnJOAwLYITvyBsBgh1zIswZEEKXCVM0ZYgWApokWQAIuVRGe2SFlALDSEEBbBjShSQFEGoDpFimNWiqUI7DP/YTdnmGqNUmt0d514j+2F+WNIQqUAWlinxQHDupIAHXUUfCdxiWASn/OlAHL3jmt7RQ68YtbjCTkSgkDygioAdYkAURVkwJVfGpXR8CFySWilbYnJ7EyWLmUiEG6CcCpsi1VB1FdNNXlhlhF++OhU+1huBMQRUyrXAqSUIg4c2jPlFEFMGGNOIEMb5I/aH0jDE9+lfKkLoOSZ6Xtb1QkkzzsKQEOPsjPWHr7urMEZCbGQdLKq7gMmzJWW+9Gd9ZJkRZ0yRTiqzj8L4RpDtMb5JTpPlKWGKnD9DdpkQ21XNNBK54NbY+eAEB/dgqYAIBrO2cIIIEUtZPMBABlyc5KAsjAJTuN1bJy3hNAWzVRCjOoT9uZVQBouLJT8SQNECU7d0vOZVQ47GAvg/qai4PIF00O5l4i9h6sb649DU+HjkrS66NsczqdhWTU0l0fyC/2kq6AAdc7x6VKRvLQf6fKcOpCX7JXc1jqmXSffYxUYXyUPyz20H91XtEsyjITT5GsB4XC8DXdqWD8lR4q7LQrb9k3zeXh34X+ZX84zN8Drv/XHwDk1fzxgB//AA==);lineShape=1;strokeColor=#FF3333;" vertex="1" parent="1">
          <mxGeometry x="335.784719274385" y="263.126389678034" width="143.26064792320085" height="3.347196229869496" as="geometry" />
        </mxCell>
        <mxCell id="sSOp6Ibu6axcIfHXp6fO-18" value="" style="shape=stencil(nVjLctswDPwaXzEA3zyn6X9kJk7tqRtnHPf194VGQ1sE5Y3Tmy1hJRLALpba+If33dPbduP4/Xw6ft/+3j+fdxv/ZePc/nW3Pe3P+mvjHzf+4eV42n47HX++Ps//356myOnXj+Ov6Ql/Zpx4SjKhHP+drzCV+cLXOf6wf13GF6qli48k4Xa83k59vHB7wirAB+LYAwq5fBsQHHHuAC5RdLcBkSn0AB/JeQDI5Ps9BE8BAJKj2O8hCkkCgEQ19YBMBQGqBSRPGdQhOyq1BxTKEQA0J/0epkeATWfNUp/WnCigJVUq5g2VPAAUsQC9UhkAhuYugQS0RtE9GECmAADVkQsdoGp3gfauibLrAZ5cBYDaVnwBKONA4YSZmHtEadu69YowAAp4Rc2U+kLoIzzojRqoegvIaElCcQBU1BvKl34PizysI7QVhlcUULqiwuUsIIE35NJaYQEQUGulEFdbiASWpAwrxQIEk9QCMt5DtXqvANR+xVll0pYviHOq1mIBCZRaGeaGN0CAbwu4c0nTbfnMpjXrtjVwWqduNs2HCzfxZQAkMBYnzg8cFaRMcYWjcA+uUfheAtVhtH/E0Uh+oByUAVnhKBKafGHkUsrQ1Mpt9N8plnlsJizH/wXoJ6/qbQa9kcPAUXUsSGeEuFcBrWUASqbmwkwIpTmDJSnA9fqt+ozmYsqN8xeAGkHssUxatfYRubjRAalUoSV5O6rVMiGvm7h5toUpQ4ZGXWHuK63vLCCtURvBGMtCjLwuk+/roNYV8SGoG+kBao4T4IMvdu6q/UaWyakM9WlVg58RQFpvLo4QqL3F2ako0tKwniWqfStFiiCcSfpwgTZg8G8MNY8bT67hSPHYcp8hk8XOf4aZ8e2sdg1HgzO0Ql7DGWxVDxT2sArHRxOERTgynVazuKneembEHjy1EujoPJwVuJ0r1+O9bRvGXfzZo/yH8frj+t3gZX84zJ8dlvftdwa9NH+j8I//AA==);lineShape=1;strokeColor=#FF3333;" vertex="1" parent="1">
          <mxGeometry x="517.3870550944939" y="178.5879267842812" width="20.599976503665175" height="141.20206518101043" as="geometry" />
        </mxCell>
        <mxCell id="sSOp6Ibu6axcIfHXp6fO-19" value="" style="shape=stencil(fZbdcgIhDIWfZm8zQAg/17Z9j85U606tdqz9e/tmZ0c0uJ47xP0I5JwEBl59bp8/1kNwn6fj4W39M76ctgM/DCGM++36OJ50NPDjwKvN4bh+PR6+9i/z74/n6ctp9H74nlb4nbmSKZeJCu5vngmZ6jzzNAO7cX8FVKEsBuBKrgKg9oAE8gkCbLeUhEoEQKSUDZDLeWYRKIl8MEDRmHwfyBrBG6Amyu4+kDxxMoB3jhwgYu7TVAsVkFcWCs4CTBEoF4RctKeOxHIf8IXYpikHikAIf+MNUW94AGSSaoAoFIE3AlOyeWU+p2E5S9yfQZcQILVuQOwZdJNoS9Ls3wA5u2XZTIHECqeJ9kDpSaauRiNVcAY1QhdBzeLBli5WazpkSsBLV25uRaqWRyFawTQzRRIQYirJzq5atkBqLfouwqUxLBepthWb10vrWZY6UOAeyKCCtDV625mm9gmUC4Wc3VLJMMIE1BsA2FW9JraVlQB7n3c9oMKhCLEvIM1zBPZ25/umNQ1tVEC2G+fFCC8g398O2hNQuQlVu752DBfA+q0ptnqO5JFmeuIuo9DY7KjY71UxdJV4EntifPWorW++R/dC4t7V3DlIB5cHx2bc7eb3yvX//QNFp+bHDT/+Aw==);lineShape=1;strokeColor=#FF3333;" vertex="1" parent="1">
          <mxGeometry x="549.4679364284132" y="185.87528194094102" width="4.672539772115442" height="4.665236216357698" as="geometry" />
        </mxCell>
        <mxCell id="sSOp6Ibu6axcIfHXp6fO-20" value="" style="shape=stencil(lVjLctswDPwaXTEgwec5Tf8jM3FqT1074zh9/H2hurRFUN5MbrKMJQlgsQA1ycPb9ul1M3l+O5+O3ze/ds/n7SRfJu93h+3mtDvr0ySPkzy8HE+bb6fj++H58vv1abacn34cf84r/L7gXCZxM8rzn/9viPnfi68X+/3usLQvFEpnLxQTsK+UevtE4u/b6/aeO/vaNly3FwrSn1/fZABIVPsN1CVf7wPEk+898IEYASo5EyKGPoREOfUAzQoAxEApdoCgb8J9QPItqQ0QHVUHAKUF8Qqo0OksNqwpUgWJzhr1nnjZkwOA4ikbQKYMolQSpZ4aukQEO1Qm6X3QJUIEAKVaf6RSKQsARAqhZ/eVXesApUafhxooIB8qFd8DCkVADQVUZwEVAfTvPqy6BCpp9aFWC0BsVRdNxc1eoSi5xs0FoAK2lmwrbgYgLgXLpflIgBpKNfaD00BYC5MfAB4oa66NCIvEFaB8eZDiWqAuFWdVQwEOqEaRwYdMBQESObGAhERAnWYLgPQeVGPeAeRBSzQPO2QQVo0JJxslRqpRKcYhDyBKjnklEQU5oRVpZKO2vroOyE23FgAY10g+WgBKtSbCjTUK4lrUxT6uizisI+JKkVYE8O3IyyJFusGUhyJFnVprLg6JYBCmzwMKJeNDgFWtgGIS4VtR3QOYpqVVCFt7tGSaWzEgUx7EUjOD8pCGmtNZoIKaSzqlDtMGUlcdd1zP75TgABSF0jAxodYectPSKwAPQDpXGnrr1IfaorhWwou5EqmrDtNpmFzRPON0mO+jpLOxQCkj6cnncA9KNg063iMqeSsa16CtmnML4O12gqYrJtfnWD5Y3ci2a7S9t3ofG4aKyq3b38wjuinZw3DrEevkaaPyzRw1kEgixpzRLEISrDlqHvaShxuBc/b2wrAjK6cMjTUV6FIbmtgsYgloo2UyZBZdRNwwMWsZovN/9hL/ob0+3L4YvOz2+8sHh+X/9guDvrp8nZDHvw==);lineShape=1;strokeColor=#FF3333;" vertex="1" parent="1">
          <mxGeometry x="549.318279232049" y="184.12349632199277" width="17.12356144126784" height="143.3977909330406" as="geometry" />
        </mxCell>
        <mxCell id="sSOp6Ibu6axcIfHXp6fO-21" value="" style="shape=stencil(lVfZctswDPwavWIIgudzmv5HZuLUnrpxxnF6/H2hauiaoLV23mQZK+LaBTjJw/v26W0zefd+Oh6+b37tnk/bSb5M3u9et5vj7qRPkzxO8vByOG6+HQ8fr8/L77en2XJ++nH4OX/h94Jj8jyDvPuzvIiFsvv35utiv9+9XtgLldTbZ2K/bq//5t4+USrr9syUBodcAgA9wQAqubgOmEMo9gQPAMIU2MYQKwBUStIDPFUQdCjN4wbQNxFUQR0IfVqDtLxdBaRAuXYA0RME1M2Tdz2AqSCAfq/vDB8oAEARyqEDsNYBATLlPq3sScI6oDpKfdC4laqnYgpNDvR2jST995kEBFALhb7MjhyostrXaL+P7Kv1R/0Hfar2NqGOaoYA61CBEbM7R3juikQCqKBHFNOo4VbQhmyBIZ0V4A3ZEiSblsFwJ1SKgGwK8AOgIpcylT5LIbcz1wCm0sp/GHQm14uepHbmdUCi6vvCVSj0VwBMDmVpcIkF0ye3zmmA1JT8zqyqXKAItGz99x0xyqn2hbWPuLVN48kte9PZhQryf6AOR8podF5hp8DpPAqAToWMalatyOtwvKFJtrMDnJ2jSIZzXe5U4ah1xvz/JCC2wXfBfzhIvK3cLEkoBmcnVYhw/uvsrGxPYFAHnc7GpcitlGvzP4+LG6BPPrPxTGeNAZygO0zplx79BMrSvKb1hcsZ6rB2DhvGqawCl+ZNz2wYZxFZ3SV7l7T2CXBUCWlkdd46wIwe92HVwYRm9LBxa8Mn0K3DSn+hI/fdGZTkEemSvZNoBEgC3JCi3Db2FfsUbEqRiDkKvUpWIQe6wln/S4ULhmavT2jREkP/jWoX17h3n32OcM0b/MkMW26IN2mLwHqZfCaBxB/qlRyk8dAPeiP0iDKfvAPftteH/xful91+v9zXL/+3F3R9tVzu5fEv);lineShape=1;strokeColor=#FF3333;" vertex="1" parent="1">
          <mxGeometry x="470.93659656696104" y="217.3210335808277" width="121.24622887529245" height="7.5044040615387075" as="geometry" />
        </mxCell>
        <mxCell id="sSOp6Ibu6axcIfHXp6fO-22" value="" style="shape=stencil(rVfJbhsxDP2auRKUqIU6p+l/BIhTG3XtwHG3vy8H7riWGD/HQG+z8ElcHrdJHt7WT6+rKfLb8bD/uvq5eT6uJ/k0xbjZrVeHzdGeJnmc5OFlf1h9Oey/755P769Ps+T89G3/Yz7h1wkXKOcZFPn33w+yfPl8kt9udhfymVLq5QMluS7fqAzyTImvy4dEqYwXxHYdEJk4jhYkBYBCsfaATAwAIsSDSnYEsDmxA1TiCgD2O4+AAgA5URjcqhTCdUBhUh4BKG6lOi8plXIdUIXE3aDghmoKhHtU0kjVxSEAauj59xkQqQHyqVLTDmD0BV5tshBnkU/E4PxWSXsLGMsr5T7MkUoE8o3C4CGmiC4w+6S/IFBLEND6bJOyHPF+PvPZxAWRLY7IqY20T4ZibsCA1IfZmCIge8ytrXdTi6TIaiXprW6Y2xboMgAaNrpQ641umQQUJQNITz1ju6BQ59Foy9iEVMpUe/JlhXXSA1KA6eZVstqcUeCc0VbrC6gAs1v7GxJOIBc3hs3HEyNQuIt5dcnYD1J7bgw4P4fkEevwqN/6/LRuJDjdhhJQrPQjJ7kiY6UftUNfxtTMQiq5OmmBhCq5Qnzhh/+FcM3B2IgA73Qfhlb4/qZGJ3SD66Aq0LG+R2uAGeqnAMUZ4ecMAwhguJ9kbqjkZyUDKHCrn8bmfnLXvGeABgB+orQ4VGCDn1k1LVn4wanYyJIBwM/dRkfYscbB3nK0AO65xcHOR2Fzi4kZkMBiYjQb+mGGycNLA7+IWQT68OK+cxEz5oJuyGPEKlMF/rGA9blcIoywH6vSDXvHMp9hvJw+gncYZ68xBLVO50+bbSu0d4iXdUIk7/hgDEez/L2L8G15e/i3db9sttvT0n75f9zS7dNpw5fHPw==);lineShape=1;strokeColor=#FF3333;" vertex="1" parent="1">
          <mxGeometry x="506.127949236203" y="241.16588791502727" width="94.75546212977883" height="4.068187548851711" as="geometry" />
        </mxCell>
        <mxCell id="sSOp6Ibu6axcIfHXp6fO-23" value="" style="shape=stencil(lVjZUhtBDPwav6qk0ZzPhPwHVZjgCsGUgRx/H21cY3Y0607xZox6R0dPt9Y7vXl9vHvZ7wK/vp2O3/e/Dvdvjzv9sgvh8Py4Px3e7NNOb3d683A87b+dju/P9+e/X+6WyOXTj+PP5Qm/zzgVanlBBf5z/oapln9ffD3HPx2eV/HR4sMQn0giiG/++ZWaXo/PQqJDvETKIKGilNMACEIBnFAjSR0BlaJcB7RAaSxBE9UEAJWKDICopO06QJiJeeyqjQEU0RoFN4ZKgQEgUxjblBMFkFMT4jgASiAOsK+1jYDaq9qeXPFFVyUBo86Nylh0LRQzAMReYgc07nTcBjClcXJNqYKi0zTqlqgBbqTsB2dsaWAOdkD08RnNjUL28QFUIDZVByhUEFlzF4gVIAIJCJeprgABXDhlUvYAQYBCSScAUrFIXD1AK5SxMAEKIHcy0ah+DoKYZDo2DTqBlOwEdYDWr+x2DbVTeQWIgKumWjF5QAFtVaMGewC6b8bWNJ6wksJtROg3fnVExXT1GtB6p7cB0v1mBQhgENZ1d0CF9jCPoULuCXthNe4hD5W0we4EMjLPb9EDAhh0KFSnEwSkZI4pk8rAveFiNuuUwJxjmYSy4Psj3k2WtoKi7YY6strgIij60wAbXCsekNH9MR2b7KcAlTGyiivakgRttcFFB2CoAbYg6sjWirlkspRH8a4BOqJZqEupXOi47eqmxQ4geAktvevrZQmwtbBfEW0xEFCDJeBseln4wBW13aeN0rqoMzghq2+rjbKh+5C6x672YkQNM1F1i7TAdczeNeJIDdvtG/B1aX0JvpAPLg4m3Y7dCRocdwm65AN36GlJZ7jqcV+jPsLRxmDGVlx4RBuJl2yGJlX9lsdQfhcT9I9Hu4Up15Q9snGbrE7PR7ql3g4sf9TMyfUZXuDlrXTqPshHJ0/mft2uUf9Tr9n/j7cPH+/0D4enp/NPAuv/+98A7Kvz7wd6+xc=);lineShape=1;strokeColor=#FF3333;" vertex="1" parent="1">
          <mxGeometry x="254.9900550133591" y="313.7857974632843" width="8.786127654263055" height="136.76198071086333" as="geometry" />
        </mxCell>
        <mxCell id="sSOp6Ibu6axcIfHXp6fO-24" value="" style="shape=stencil(lVfbctpADP0av2pWq70+p+l/ZCakMKUhQ0gvf1+5HhMk6DF+M1jHWl3OkXaQh/ft09tmiOH9dDx83/zaPZ+2g3wZYty9bjfH3UmfBnkc5OHlcNx8Ox4+Xp+n329Po+X49OPwc/zC7wknnVIbUTH8mf5hCuXfH18n+/3u9cK+BMps7Au0r5VqsN9n6vn/gFaoZAtolIGHztS6AcRMvQFAohANQIRqhYBmj5RwDD0TW0AOFDsERAdoFBkDii1DprLKQ43UUFoVIBbQKQgG2LS2RBkBCkmygD77vA1olCygRyogSxwCBdt9+o2IeqNRYw9oOGqpFtBJIgDokZIHVBBEE5LmAT0ByikjLSEu8nCb1I169C4aSFPRvIsHZNB+uc7fuwAw4FxWChVfiAI4lxPVK0BARypUXQyVMvCg0udkQAHIQykzJc8A9Qk8VPHap4AM6tAC9SsPEFDn1rnzSF2lsa8JWl93XpPWsdUcg3DhFJCuAKg1PkO8s/lUVrxs4PZueabwnQSqOtNsHZY4WpnilW4gGShp7oQ7hSZ3PyIWpEw5uk4slaNeNrAcrwcUYhc0HhHjnLX9vTCENEvJ9sbCmFOA0++FQToC3OSNM0XuLNzCMqAAtnq/sG7o62bFVRcaAd2qALEexpUJFa76wulS1kB7j61hVUA3UQaA1OYDXCyWaAPS1bjboFl7CQQdz6/PhYOUDl6LVXZAEa52GYaqF7xeMGQOe6aFeSe4nU1iduYoNToCojMXUCu9I7jiBlhbLr7dAqSYRsvd26PKFp/7AG89EvytKkB+SSIpzj6BeKVS8vFWEO/aW96yvT58Xilfdvv9dCO9fO+voPrXdH2Vx78=);lineShape=1;strokeColor=#FF3333;" vertex="1" parent="1">
          <mxGeometry x="294.9844903718347" y="316.18236380265716" width="7.004542108413034" height="92.13305742336183" as="geometry" />
        </mxCell>
        <mxCell id="sSOp6Ibu6axcIfHXp6fO-25" value="" style="shape=stencil(lVfLbttADPwaXYl9P85p+h8B4tRCXTtwnLb5+3CrrmVS1gi5yTKp5ZAzJHfwD2/7p9fd4Mzb5Xz6ufszPl/2g/82ODce97vzeOGnwT8O/uHldN79OJ/ej8/T79enZtmefp1+ty/8nfwMBducnPmYXhRD3vx7832yP4zHG3tPtgr7mMnVdftMOQj7YCjFdXvrKTnh4DkgcAAjiPIEF8lb4FDIeelgKSQAOZErwsEWMnndIQRKyiFQAaCjoypBW0sZVCEZKhK05SyBkBJHLEOqVDwoW+hVmu0TSGpjjVP20QH7SNZI3lEEVS6VrPx+ohrW7asjJ78fKID81NCPvyYU5qcWzTpDBhSs1v73bJ/Q9ysFiddRRPFXrbMI68X2VdrzgSCf1hgNoCkVqKadIDuLzVQAJdgh5YUuASfYQXGOi/xfqWtFK7LInKWKslQWVUidV/cdMtWsT7AIdKYodcmFzgjDtd1e04orxw5WtYpIAVGPHWR/5GZkN0KSGK5HrmKWvcVTxjlSXLVw5HDVvIzH9GazSouo7B3Wmi4BZcxT1UvDFq8VTQuM/542uf2hCrA2ZUQ24fbI7SVJmnLDBxOt9S95Ahd54wSzGOMRa1Mrh7WJGtKXHUJX4o0DDMmR99qhAqnxVFNTiqXjgdTa2FRpZbIDDG0uq5Bqf7M6+JN2CKDSqehJzg4ZnNB2F5nWtuEBtkZPRq2ELDgQEu9fWXZhHzu71jY81TF8gU11zvpV0o4M3lKzrEPA5OON0UgM0eKNipLUT7J9PN5Pkt4gufJoPDM+iXieE/cBUJHjn/WXQIYYnUxQa5soQb3DzRswXsHMYuOpfU1fsVdCYACI14ubVEsQAMxDRtmzuAFgownB7SZje6nLauAqsrAvmQLMp4qnhI14FN7i4Aj56s10254f5mvwy3g4TLfo2//1tZlfTVdu//gJ);lineShape=1;strokeColor=#FF3333;" vertex="1" parent="1">
          <mxGeometry x="214.17869237467812" y="341.54569027124035" width="115.4990020427233" height="12.685390479377247" as="geometry" />
        </mxCell>
        <mxCell id="sSOp6Ibu6axcIfHXp6fO-26" value="" style="shape=stencil(lVjLbhsxDPwaXwlJ1IvnNP2PAHEao2kcOO7r78utIcXkdifNbb3mrERyhqS045vXx7uX/S6F1/Pp+HX/83B/ftzxp11Kh+fH/elw1qcd3+745uF42n85Hb8/319+v9wtlsvTt+OP5Qu/LrhIqS6gFH5fXnClKn/ffL7YPx2er+yZpBj7LJSBfaOYjH0RqnnbPga/QK3EDACFKhtAC5TTNkBdDs0CmLgBQKMULCBTCyBGmYJ1uhXiuA3IkWL2gIoAnZL4LdW6DShltYIGum8DahxpnXkoFEDiqmbaMqk0CGjJA9SrCHxoykybBxboQw/E3QJ0TcClziPqA5A0ccCHXinbsEahAqjRO3W7gvI3lG2ABOpWDzFRBitIomrpLZBKUnyiVeJAPtKpWnIHCmg/Mvx7s+8gpGrvQsp4/0LNfr8P9W3Zi0sZXiCG6eBVkhuoecsSNkRKIxhTGfVk+hyJEStkxexCBUWpD6VMQIPaUUCxYeUOC70Coq3D2kngCo2aaz08qLUFcEzVVDdQMBTANtUpkaAotdFqZqbrUNPmlqwP2r8aXqFZ/RfYDjWqwS6QsNo0STbPgSJyoI+AvNmjgrcQz1Ebs0JGW5ptBFcvoW5zHCNVoIR/qbPhFKg6XUi14oGuIFPtEyCw2crsAZPZmRh77aYkVScaSTRtvmCoXjGPPggo1KwU8jvMTtStD1mpgQCrSU8BArjUxWc6MwUEqJ58uYxAb/X/vppuUR3WCcM1Qx20OkiczjCu/1eGvUSnJHbTqlYAEFadw5xCdZMorDrpubFKAx0BW9XFZH2QOV1uTavsAB32w/U8fCXz/xy5l0oCus9yMOkegCa35diwcgIBdLAr7MOEGuLSOqzXqilGM7qXqBIe5YE9M5SNCbA7jNY0uZrGWWvD3k1uSq0ImBf82VPPhgH4G1ZnyQpPemGcP6Y9PuitOkkJUAjBcy5PdW/tf1W/KvQ3ue+rkuF+2E3y/Z18FWffoMiCr1064aH4RB9/tUff/+hdxPv2+vB28fFweHq63Jtc/+8vSvTV5ZKFb/8A);lineShape=1;strokeColor=#FF3333;" vertex="1" parent="1">
          <mxGeometry x="219.76836575078732" y="363.613676884994" width="150.07627805835295" height="10.443978743248636" as="geometry" />
        </mxCell>
        <mxCell id="sSOp6Ibu6axcIfHXp6fO-27" value="" style="shape=stencil(lVfLbhsxDPwaXwmJ1IM6p+l/BIhTG3XjwHH6+Ptya8hecb1T5LZec1Ykh0NSG3l43z29bTcc3s+n4/ftr/3zebeRLxvm/etue9qf7Wkjjxt5eDmett9Ox4/X58vvt6fJcnr6cfw5feH3BceJOE8oDn8ubyJx/Pfi68X+sH+d2UumFgf7SgHYJ7MP4/eZNK8DslIsA8A80rYOKEqiA0CYalgH1EJlBCTpb+4ClInHGHKihACFsgyAkkjKOqAFkpGFyjDoFqmNMdRGCnhoQlIHgCZqAgDJE61KFQEqSRsAdmZOIEuJdExry7A0tHVeZ4CG0poojEG3QgyIsxhS9oCKAI2yc+mahjWAI64pBRSDkhYPqIhpC9EBGg6aKYkHoBO0Um0egHgwASkvACBL1XKSPUCRpqU7MAMkBoDQHZilVUGWSluUhhKD8i73SiNX4FKkmHzxIYnWRLF5QEJZsla5OCGAE1QWLuVejvcB1r2XEgUuWfHV6F2KSA8WYvGAgk7QheIqRcB0DIHCgjlFrc9qwwWhnfy1PsPOp0YRt++lgjJQkPXKFDwAEaHXkXYd1Lc8rCLapxDF6tlpyEYE6PimIdfApyGENBT6NjIfc6jTLLi2QdoAE9O64Ua1dCfvA5Jvr/YGzcWyiMHWjQJisL/d5LWFBgU9LWWjSyJdt2tbXxnLj7nL8C6AxbemaEwj0V33ndteiRag4LsxQ/0sWI5UwXQIfoRGEmBuK/OYThsugGALNTlz1MCy9z1AZ2r/2M08It+D76cBLvTGY/LeI83H0jffmT0qBJO8/z6jSjNqfPIziJfFT6jQ6bhv/8kL0v/t7eF2G3vZHw6Xy9z8f397s1eXm588/gU=);lineShape=1;strokeColor=#FF3333;" vertex="1" parent="1">
          <mxGeometry x="374.98568490235357" y="332.19041290051007" width="11.451694293909895" height="84.76846750043899" as="geometry" />
        </mxCell>
        <mxCell id="sSOp6Ibu6axcIfHXp6fO-28" value="" style="shape=stencil(lVjbchoxDP0aXjWy5Yv8nKb/kZmQwjQNGZLe/r7aMoa1lj0kb8DqYF3OkeTdyN3b7uF1u4n89n48fN/+3j++7zbyZRPj/mW3Pe7f7dNG7jdy93Q4br8dDz9fHk/fXx8my+nTj8Ov6R/+nHAhUSkTKvLf0y9MKf//4evJ/nn/MrOPSiUP9pE0rtunSEkH+0xa1u1zIg6DfesOXrUviTQN9kGopXVAzcRtBCiprANUSOIYcaIIQtZGMrpkMWhbBzShIANAMlUEyCQjIAXKIOhWusdnQIUxGCDXsWxWZ8ALA5QxrVlJMKCOMZRz6T8KaJRB4QzgqFGtcAwAlhMHUErIpUptFI8Gqiho7Y/PgEQB0DswE/OIqJ1ea0c49hkfkeKMfTr61EyzAGAO1NEl4yMDMtXie4A5ieg61WnMa2sUFADYF6LdaBuFmngAahslUtYFAGh0on/zACRq63y1eoCAoE2RIfq0whOYavAARiewF3XD5DOX2HHJ+gLQaF6MHwMwOkEpuhMyFUA+K1xKHoBEbdSougAAURv5VDygIj2cNT8LGjWmSUDRA9DMqrUzZ1a4DPRgJzSXJeMvcin7mWWAhiQaF0Fb+0aFUz93DaDghGl+uFXg0j2vk8kUmT5zRM59kM+DwILQRduALgXiRV4FKYi7A/NSoy4QOpvnZEIr2WcB007mSi1wtC/7vc2shiTXKI698sZUVO5c++DgtUEuY6+8Mdo19hn4weXBAGk84cZ6MgFG8t1YgCbAcsVCm2v0kpumGMpS9Mv0hfBraS3j7jAtooCtU+EWq25FXFIKY1qldCfXyOdiEO6j+zq9a7/xzC4EiK3WZmQUUGhwmU7qt++QITXE2O8AoS8H169x53FwJl+fetf30Ow9Sn3juv7/PmK8Uga/yUS47rGnaYDpXKzQdlkCDGIKLpewUyymP8MLcfCLJ0MNi28STBENKArNmQckFh8q4yuYv0Xi8WocXNpXYC/98SxYlMpPvru4bW8fLi9KnvbPz6f3LPPn/sWK/XR6KSP3/wA=);lineShape=1;strokeColor=#FF3333;" vertex="1" parent="1">
          <mxGeometry x="424.4907124152446" y="312.8949574160106" width="17.74886391533437" height="103.66976502808723" as="geometry" />
        </mxCell>
        <mxCell id="sSOp6Ibu6axcIfHXp6fO-29" value="" style="shape=stencil(lVhbctswDDyNfzF8k/hO03tkJk7tqRtnHPd1+0LVUBZBcZ38yTJWxBsL7vzD++Hpbb9z5v16OX/f/z4+Xw87/2Xn3PH1sL8cr/K08487//Byvuy/Xc4/X5/n329Pk+T09OP8a/rCnxlnydgJ5Mzf+UUo5Pn/m6+z/On4upIPFLKWL2YsXyiaVp4phrG89eRDA4iGTAaAQhw1IMQxwEXyWQOyHwO8o5A0gIENniknbbQBTgqJCreARBaoFD2l1kvBUQFGR65RqgBREsU5RbKtW30mBiolJjYa4N0YkD0VqwEo0jmTdS0gkQE2ZK4aL4BQP7GdrI6cssFSAieUQL61wUl6WwBI2gaXKSAA12ReAOK3NAawpaxOMFQKAHRxYEogWTlSbJPV1grcli/k2u8bWAwin0trADmkP5Njpb9B+nAN6aK/vAEh4D6NcLFZs1i4lGeuTWd0RGltTpJ42GgVhBzIYatVPRdf/TwKQ2rDJqkI41DItD2JTT1zGyCZ3xot1YE6hgCUW3MhC8qTE6XW6JRwbqeu1TvKKHAdwItKYDZMKrVekpHqUD0nYpWujiICZK1SqAUyjFvbMMw9+a7+YT1zHWVLEOqIH6Z2O59tpIwBpQUI63BgVG3Vp8x4ZDPXgb/kRa7ZPgJklarmntVqkhRb4zIKg5roJUNWwotTVvWJKMDnAZGK04CAR4/qrPIJi1pxN9xEyQBC3Y9POSEAL/UDWs5kRHA7CiBnFjTRO5IhgUugT/Y0pkTYMnqiJL3egzj0VEyUTHfIXgdgkK0TncxapQhyaSKsQRuNuNtEidUJBXI3odisIu0g6Z5ofTuvJJccUKlfHG69+YOriQASAPTLD+Mm0K9XUkBo5nb729R3gEbdfnhjKtsK6f1z1Zw3AabO49UBiPiYum6uPIQ6t+kc5CGjN11iF0gOxbo2J6baxPJqkOTacD4oLy4Gtd/pI6WK/aPsjXih7/wZA1xHunhFe8c/Kh9k10YE7LMXHvfl5eF2u/JyPJ3my5n1//o2Rl7NNzn+8R8=);lineShape=1;strokeColor=#FF3333;" vertex="1" parent="1">
          <mxGeometry x="339.79091449307066" y="343.1184962619003" width="139.5108749077981" height="5.50092455573963" as="geometry" />
        </mxCell>
        <mxCell id="sSOp6Ibu6axcIfHXp6fO-30" value="" style="shape=stencil(rVjZbhsxDPwavxKSSF3PafofAeI0RtM4cJIef1+qhrYmNztGgb6t1xxJvIaz2vHN6+Pdy36Xwuvb6fh1/+Nw//a440+7lA7Pj/vT4U2fdny745uH42n/5XR8f74//365G5bj6dvx+1jh5xkXqPUBSuHX+UWNlPnPm89n+6fD84W9UKnGvjA12bZvJMHY504M1o+JcrGAQoIAlVgsQCimbUBKVK0L0qmCHVKnwBYg06sPAZx9ULlRaSCoTLFZwHLIDwE5ULaAVKmDNORKYo+UmDLYYaTVRklLJWcA6CTRAGKjGLcBVSjYI2kqA4hS1fVspmOhgmovro6UqXQAEErZAoQyqKVWqDoAU0I7aC25IyVYrT3OmCwAfQPy0MU3UIEN1xtxMvaBAihutW/s7CtyQPvdMgBTwfaOYfSAIKJq311EBTJYDIuDS2lH2M9jCxsiPRPK8vDB9bMyRsFBsk5wpwR6YWTBFp4kSqAXRppt8yjpBJSH6vMscVbWFoAd6yknoShpu9tKHayH8lBWnFSw02XOpqU2roS1ULc7jHmEuq1S8t1WcZCKtU+QYDRt0eY5zA237N36ao+6v/v1E5y2ar9ilyvd7OpUA8pg7oxec1Ohw6kwAC6ihQIqCp32q2GLCEMBYn3Qwm64mx3Ja+sI7ubsADyX+E+AMgnrQsN0lAf2zSnLrNscVN0DOgCsR6GobgJRWg9b9QEdaYzz4qOU0Q4rwaCsilTSkCTFA9D0rIs2vQDIFVlVVz6AHVS4dfFh7aBaVRo6LSkd1pKKTzehM0PS0BM7CZAb1CRcfGkUmeNrS6I7GqvKe8AHpblmna4Z1pJqU1caLcCRrjzndQxP/brxpeTSoPWegQviiVI7EI0G/ddW3uBmUNthNQoDVoaLDrzYgKG9+yQZkgPaOwrrquZBgIL/XOhpSpoN+2DtlaEKKImVjNSEoVkbpt5a7NOcRFvnt+vXDjs/TC202GsBAf2l8bfnUXJKcP3ieizBqfavVwvX7fXh7z3Gw+Hp6XwNcvm/v/fQV+c7E779DQ==);lineShape=1;strokeColor=#FF3333;" vertex="1" parent="1">
          <mxGeometry x="342.18384985632906" y="381.13702232191986" width="134.11545483935242" height="9.875058142488342" as="geometry" />
        </mxCell>
        <mxCell id="sSOp6Ibu6axcIfHXp6fO-31" value="" style="shape=stencil(lZfbbtswDIafJrcEdZauu+49CjRdgmVNkaY7vP3oGUpNyv6H3DmOPoukfh60Cw/vh6e3/c7z+/Vy/r7/dXy+Hnbhy8774+thfzle5WkXHnfh4eV82X+7nD9en+ffb0/Tyunpx/nn9IXfM9eI8wR5/jO/YMrx34uv8/LT8XWx3FXyRa1P5Mr2el+pBrXeMZW2DYRGTRvkCkVgUXIUWAE+wh2yp6B3CJ5K2gaKo6KByJQqABplHaRYKYEdaqJioprJMwAkSlEBOVBx20DzVKsCClPNAIiUvAYyNWBSS+SdAqrre24BSftQM7EHgPytoyRh8AECWUujiUlAS630mNyA1PW+Dsg5aKdbJYecHg5OgIyBoM9B3jh0cGKAs0BCQO75tQAqUKtII1YLNJBxIr6YBgA5zVYak0koHyq1YoEIdqhy0s0CjFJUqpAuZBJoFFYBsrcAI6AO51C6freKQPUWgPngKBtpZHxwYQ3ARSCHAUAJVFacRpVPgliLBaC8Wy/uy3MApdIxE7MlEiqukmCjmBAg3xvligsTDwlRUFylLY8ph4BATotpEYctNY1bVLCF6HUsA1DgUsqGuMK2WPo5LU6ugIy4H0iD/BJF5LQ0cuODg9VVgGL6qDiNgaZ3mPooKjS5u7jo1A0DRn3lpsd1QDqE9kFmKEZRchS1DzlC8YkBQfeglKGWxICgnY4NRkkGKmNSdF2O64NotPkQQhf8KhAl5czkmnpdWJ+NnS1l0zgOutw0zJvpWz6Bxnvudet2Dn2qW13Pdkh0cAplcsYcGKChDjs4+bCNP8P5k20N5t7s1kNDPprlAYXeTmEMxSNSsF9H+RLtLQyXailR/o7l2U5f2Jhb//1cjjRTbW1giqjN3HdB/e9yefi8C78cT6f5Kr38396d5dV87w6PfwE=);lineShape=1;strokeColor=#FF3333;" vertex="1" parent="1">
          <mxGeometry x="526.184977905386" y="311.39338724335016" width="29.530001852137502" height="119.66148095291783" as="geometry" />
        </mxCell>
        <mxCell id="sSOp6Ibu6axcIfHXp6fO-32" value="" style="shape=stencil(nVfLctswDPwaXTEEwOc5Tf8jM3FqT9044zh9/H2humpFMFpPe5NErAgsFiA46d3r/uFlN0l4vZxPn3ffDo+X/aQfJpHD8353PlzsadL7Se+eTufdp/Pp7fnx+v7yMFvOT19OX+c/fL/iOFILM0rCj99fiPOvDx+v9sfD88peEjXp7CupbNtrplr7/2eSsg2IhUrpALalAI9SocgdQCOluA3ImWLuAFEp8zagRCo9R0mo1G1AZVLtAJkXJ98HZMq9S7lRBiy1QNzTWjKVBgBK3NNahVIAgLQ48AeQqQFaW6EaO4A5GUAMHGy959X+gXhtjVKf6lYpoqgrhdQDGjGQq0VdqgdkBJCFlBWgAUBtVHttrHjYEkfJfouaACAuvK8AEelVKKjnFeW6hsWBFUDQDsGryVKdQFVbCSWnDeskQE1VSZIHQJcs1S5zaVHw+4Dq28BcI6CqGw8VcQMQqfLgksKaUxmCBrSaEEIbaAVamtXsYiiwuxrAV1DFLlXKo/hQyeWFxLW8UbNUauoBKNPWuGqv1ps1ao1raDSwDQzn7txoQKqtRrN4ACO58rK84jWhQygMO1hLR0H/B8CzFJazeAvAPcCIRtNDab71GW9I33Zsph5QCqS1qN+hmJMgcbn49m3DQANB2zL3tCaF04NNI9UNNBEOZTbvuE6mCfZKm6hC75JkyJKoP1G4wB2Yh3qANR380CekIM3DpMHwfAuD97Bygh9LLIPA3GbB3hkrCyAgK/zkzCNKLnFz5gxGpOT7u8WO5L9MmStzNEX6DmHmQPqmAvWxCoiVB+XjfmK3neDt0cD5r7ej2/b28Pcq9nQ4Hq83ufW6v7rZp+u1T+9/Ag==);lineShape=1;strokeColor=#FF3333;" vertex="1" parent="1">
          <mxGeometry x="569.3925305133996" y="337.78509944085283" width="18.38656181918168" height="80.57028282741419" as="geometry" />
        </mxCell>
        <mxCell id="sSOp6Ibu6axcIfHXp6fO-33" value="" style="shape=stencil(lVjZchpBDPyafVXNfTw7zn+4yjhQIeDC5Pr7aLIZFmnYhrytsXpHR6ul2ck/fWxf3jeTMx/n0/Hr5ufu9byd/KfJud1huzntzvw0+efJP70dT5svp+P3w+v89/tLs2xP344/2ht+zThLJjeQM7/nH1ImX/7+8nm23+8OV/aRYtD21azbW0OxSkAhBw6wiVzQgBjXAc6RdxqQEaBQVS7xmQDgIyWVJEsurwOCpSJdih5mKWQKRgACJxoAoiPnBcBzHYBLMZFVAEfWAUAlK7PkMhmQJc6JlzEwuWwAAE9ZVtq6nujbgESmyDpQqsB+CCGQtev22VKV73cUkD0XVeaUuwkEnBMFaW/IgCLnQikoewfiLZaCU/4EkM8SKMv8cEWAP6XoTov9BTftq9WsTuSBP/VSnsX+H8tv26fOr8Ufj/wpumnYQVAvttcEpYz8qeRkfgLMP9snGW/F+alUJD9t7AxcEd8LwS6M9hRAE/MRNUpK4CZmQFYAzjJoGgZoqeM2QgCW6yQBmRKKofQQL4BKBtUt66D5BOgSy7USltCjWgNo9S29lmvUrlbXoQK5ZkCRMTD50FBrJ0gAT96EXMq9rgtbK+q2rCd/oIK708g623u8iFnZ+wSJp97v+8BaJar0nwPC3V9kfqynhA/Q48ZgUlS9uPAqk3CvFUW72M9cA0QJCO5eNyvJDulecyalkdwJWIT/EzBOBSYGKtwwdqLppX9wrjHAA5duDE4DhXuczLxAGtD+4+iPEbb/uFvEy3by4PLCgAxcGrcjdgkJTFu/VNABdnQa5i2vxUhi2p4vJYCpEdHGydQo+gTU07wEJ6ODRjsDr9leuVTgEsBZ19cd05V87aqgCsdpQA0UBuHOeI/h606VSlwwW1mFsgRUA9PKo8ZIttbYr1gPXgoXHXnw2skAdMJ4sW1aiK5s+ubcBgy6COub+dU2dxNg9PxZ1HzFXs1PjthCe8VUrgG61BrdO9VBoho9n0uFtBt22xLh6BntLRSwwZ+MP3UM8ba2ge9X+WQBRIQY6tX0D/TxwIeU+474GOHufAq6b88Py3ent91+P3+2uv6//k7FP83fuPzzHw==);lineShape=1;strokeColor=#FF3333;" vertex="1" parent="1">
          <mxGeometry x="484.5952230553662" y="350.3398036696815" width="131.3107588928449" height="8.675258564848605" as="geometry" />
        </mxCell>
        <mxCell id="sSOp6Ibu6axcIfHXp6fO-34" value="" style="shape=stencil(lVfZbhsxDPwavxLULT6n6X8EiNMYdePASXr8fbk1tDW53lnkbS3PSLyGlHbp7u354XW/i/z2fj593/86PL4/79KXXYyHl+f9+fCuX7t0v0t3T6fz/tv59PHyePn9+jAhp68fp5/TDr8vPKZeJlLkP5eFlijUfytfL/jj4eUKX6ixxUcqvI4PgWqyBKbQAKGTREOoeazcJMQ2DBiE0iiFdULSv63PWbfo64TcKVqTUiVJIEhCbJ2OnRhEtQqlbAmBOK8TWvdOh0wd5KEXkm4IQgLSIIHERZVaAfg6sjobRE0AXija/ZkY2K/4XBw+4/2rtSdSADlWvBOCxhPvL9Xg+0jh7bLm2b85QJsWuROC5hCb1G3VBS0rfEK1PmvSNk7IVggxUUFVIb4qlCAozX0I64oA66JTcyYxCUiEEooLayNBPnTKrrIzJdCQJoI7gUfxrppkna7UsAvValmzgLTcqVt8oIjTHGxMeSys4VPz+A1tOilsabmz83dLm27mUADt+pY2eYRs9QQX0YzboyxS0HERyaKuNWnACSW4iRDxJJ86cPUENGg/T6gLQqGCCGHMpJkgQxq3p1odU3KujATHzjQ37QlJxYQncw52LmQ4OMtCPCUSA4LeLpI9oersB7Wk9xc3ClugDnzQ8nd660pAw0q8HrrA28V0y7NhFZxpvUxYhU5NEwhO5eh6MOP7Ai8MEphn9k1+asogCUzJRkiLHTUAHlqc8TpEoD3s8AEGdNHBupYVEMISX2C34FGSMz5uxD9YYTaBM4Qp2v7Y6sjgWr6cBjIUvtaDsycNUawV3KfeRdt4/fj/CHs6HI+XN9z1//7RpkuXB1+6/ws=);lineShape=1;strokeColor=#FF3333;" vertex="1" parent="1">
          <mxGeometry x="510.9929391995054" y="370.07059035075497" width="163.42837309151378" height="10.544329402634162" as="geometry" />
        </mxCell>
        <mxCell id="sSOp6Ibu6axcIfHXp6fO-35" value="" style="shape=stencil(lVjLctswDPwaXzEEn+A5Tf8jM3FqT90447ivvy9Ul7IIyuvmJlNck1gssaA24eF99/S23Xj3fj4dv25/7p/Pu034tPF+/7rbnvZnfdqEx014eDmetl9Ox++vz5ffb0/TzOnp2/HH9A+/LjjPlMuE8u73ZcRRdX8HPl/mH/avi/nBU6jd/Eg13Z4fmULo5leSCuZnEunmcyIBG0qOXL+AhlQjAOiOuAdIG7kFkB4QEjkQswKq4YgpIYBv/zcDhBjFMABSpJA/BKiUEa3e0prjPZb+sT4DhBwGlF55xZFgWkMvjRKI0QoqZQPIxCjoQs4AKnlAa85NzA0gDNVadAUDiJT8bYC+9r34pBCDLYlQ6TMttRG9CqieUr+CjqDE1UTeHOlIEai1qtT6oOtMwy1AEQtAVUlf5158VSgDlmqg5HpAhfJW1ku1AESrCoG9BVQQdInEZQAg8WnQYgEZbCn7oRZXqKUk1hyU1ghWSIO8p8yAoBVQcg/I0B+ya2VrAUAx5ETB5CFRAjEUphgsgAUAhHyxAAfOg+j/pWEFpNbRRDWGAAB50FKGpfIqhGUewArs1HdNIjTVaE9CyWhDxQRK38TioG8UhBY6GfSdUSICxaEKoG5G/SP2vC54WJdfteV4qhtI4KHtYFmZkC3WlUNaAK965oIBFFhoPg4I5Icz55HxDh2TelABZy4qJ6bgO4q4rzQsqVGiUx29PRF6bFFfGSJlY7yhVZJVgE/Wg8S1DmcdwM2X5/aktEqyDtANmH4mNrNfB8jQYjkq6DrgrLzVlSBLvrUK/9lXToBeS3c61+mG0md66o1BwVeAN+067r4VwH2dmfp7cB7C3BQubxAg0wrg8Y4CYtBblSmu3sMWy2frQZzJoRWctUXWEZA45tY6z3mAUnJDaYUd3GA/DKuks4bI0KKHm8Os83VyrOTuFCPLjGsdxLolNHFdp0Mvt9pRqoAdaJ6KjRU5GseW9sV8kCjVlUS7faB9FnuRvFMVHSW7/wzi/egXj/vz9eH6eeVlfzhcvs4s39vPMTp0+ZQTHv8A);lineShape=1;strokeColor=#FF3333;" vertex="1" parent="1">
          <mxGeometry x="259.7795281129354" y="440.1801125663135" width="12.831008486386509" height="110.94929969581244" as="geometry" />
        </mxCell>
        <mxCell id="sSOp6Ibu6axcIfHXp6fO-36" value="" style="shape=stencil(lVhLblsxDDzN2xKSqB/XaXqPAHFqo64dOO7v9qX6oMSi7DGye5E5EjkcUlQWfnjbPr1uluDezqfj983v3fN5u/CXJYTdYbs57c76tfDjwg8vx9Pm2+n48/C8/v361Czb14/jr7bDnxXHjoI0VHB/1xVPvvxf+Lra73eHS/tAuQz2TJKAferbdftCRYC9kM+jP0wBOBQzpfEAL1TBCSkSpwGgLqV4G5CVER5DTjCGnIn9AIiRvAeASnEMOgXyFQCEOAyA7PrKLUCOI0DzgFwSKqNLhanybUBxJHUEVCrApY/9OqAGcghQuhDeAbHzdhWg+9WRpVphHmoiHlkSRwnkoapyRpaEyYNyEKE4SkMKZRC0AuoYtFQK6ATNa7WAClhSj9mcoOoC8tagvbeAAkq0qPiSBQigtXgrvjuAHCnUySUASIVELCA6AODeIy5pBUEnP2VaEwfyoIA6SwNUnDayMgEcaGRJteRGQO76vdXIbNCZAmoCmocJ4JCWtOSrBXhU09LVfwGIqIDilOmM60HblrO0ohO8c+QMosJEtCOSBWQgJknkphpFiVCaeKqgjHtlCBYgONU8Zu6Ch1tqylMQsITUg6nRoJu6VcTUBtydmpsSEXFVfw6gNz8b+aXeq64DAiWTCIYVoSdYgINXik5MRq56LQZAa0y2M+nFC09IVhsqL48AcZo2al+5DmCKY6Np4wSKQafIMeg2ACGXgm0DbcRCJ3jKI0s6xKEabaPuWA9KQwAuMdtpQwdRAS6FbINu0zdwyeuNYwAOJq724f9iWo/AI7aTcYGvB20oZpCGfXXqwx6OSs4O0TrCAs3phS7GPINCZjvTO8hMtkOVgzUp9tnm4D3rg73636m9bq+XarL2oLe3n9naAy6bECz3Hvjf6LH7M2i7Kky2dGYQr/JZrD8VJfezz+a79vrx8UZ/2e336xP/8nf7ptel9f8B/PgP);lineShape=1;strokeColor=#FF3333;" vertex="1" parent="1">
          <mxGeometry x="290.9434193176344" y="443.3479555509366" width="9.61871575499731" height="119.77871338414093" as="geometry" />
        </mxCell>
        <mxCell id="sSOp6Ibu6axcIfHXp6fO-37" value="" style="shape=stencil(lVfbcloxDPya86qxfJWf0/Q/MhNSmFLIENLL31cu41Ms4qV9IydaW1qtLl7Cw9v26XWzePd2Ph2/bn7sns/bJXxavN8dtpvT7qy/lvC4hIeX42nz5XR8Pzxf/n59apbt17fj93bCzwvOUeYG8u7X5YN48vLny+eL/X53uLL3VGSwL54kzO0z8Xh+DsR1bs9Mbrwg6ZXgAi7U/ncFiIF8BhFEinUAhEgV3BBWBzrAl87Ch4DIFMYYPJMAl5KjFAeARlUZACplA4hUAK1ZKI55YI0qzQElUx5pZUcRsCTBKklDAB5J7VlaE03Jze3rzfmeKkhCzVRMxBTR+dJF0O0dOWR/47/y46F9KsYflDG1l9H/QBVoSO3r6I8SAPxnt8bXARUWWrtgJIhxZSqgmIhTL4wpRSZlpct2moMxBJauklmSJVuAgDJQQAoWwFhGPo2ATDFCgLspZYdc0roylcnEiNa1l6w9nhjlTT0a7RN5TKq3lQl1IbYBO6xssZXg+oyYqYKTsecC7aOtTI8yproeM6Yj7U5lesNnAed/UJnSe9n0AhOA9hbskRhVR0oYYJqvqlpwtwsGIP3LtP0WCxCUZent/18B2a4uzSXUgYOd+7w6ORtpYRSeKikBltrMNIuC1j7IQ5vKI0va5VHi2twfG55qqYLuopuFGZuBYbXp7pJHlnSdCiDouHKyAgROTt2/TP3E2GfpbMMzBZoY7iI6ZpKZnRoV3lINoDjoUu6zfq1o3UYAqzfCqJoFcL6eNiqvjUbAKduW3VoC8MfZ5eKqSU0AxdsLEmDU2Zmg9Z2BsB0Fs7zoOwAQpCNglERNfdmY2JuprN0gwvPtMsV3/HEjP9o8HBgKam8ElOELwdlXkaQ7+Ypm5AS47v/vu/G+vf74+0h92e33lzfu9f/to1Y/XR7E4fE3);lineShape=1;strokeColor=#FF3333;" vertex="1" parent="1">
          <mxGeometry x="233.3493709074712" y="466.57343419926383" width="141.0313903188221" height="15.676342280494282" as="geometry" />
        </mxCell>
        <mxCell id="sSOp6Ibu6axcIfHXp6fO-38" value="" style="shape=stencil(rVjZctswDPwav2JIgudzmv5HZuLUnrp2xnF6/H2hqlRMINo6M31zFKwILI4FteG7l93D83YT3MvlfPq6/bF/vOw2/GkTwv642573F/m14fsN3z2dztsv59Pr8XH++/lhspx+fTt9n97wc8Z54jyBgvs1PwiRcvzz5PNsf9gfr+wzxTLaJ4pp3d4H4jACMjlwgK+Uqgb8PfNdgDjASQNKXQdwMIBCzgNAI+80wAOXYqLEGhDaOiB5ClkDGJyQMvmoARHlzZFTMUjiAEs5UFUuyROQ6Zx1DJJK6FKjPLLkmZpbBxSmMAbtHXmQuCIsjcVXqAVg3yiNJCUKgKMa+uu6PZPPwD731y2cEoOAa6OqGKIC/G+h89ftHTUG9lJkXtk74E+rvezf/M/In0rNJCygAyQBqqx9f8UaoI0RcO5V9f54caYRUqACikiOqOMRWUYUBqiZKnWCmlloKqNLksiKoi5U2wiovVLWAG6MQZyEQWed6SZjFrRCW2RgCTrD2m5R9460d0QuLcK0JK6SQy4ZQPRwvliXREkSSpwJWiZYBnPe0hpxA0neRo8c1BFbGB4Kla28AgeYLW1f4Lpgm4d9n7G39mdcptSNIyAzMSLJDJkihYRZUmOsLmHdOCenSYvzpgbxFQ//C2HEQYhAYVv1kbigHBp5Ey8L0jejn9IgaPBZgZaeRYpoNwChAQ0Nu2NMNIDU2S1GaPAgaLsnVWkJ0HR2EyvSpWgTMy1UIiXAkt0mS4Au2X1VAEh27UZcsOranVsASOLsVi+ABhJn7w1T7gFL9mYigIR2DXP3EUBDmdaXqylv6HKlp3FJ/cmKvWP9fiQ/rvfWFaXosue0HMqm1ECziZiN/uRIEbSO6617tQGgFNtVj8kBfqz0ZLh9Gn9kwUAXSRMvS1tA/xWfIp7uI/kSOU/orq3rIeAl76MfC/5tLz/evkw87Q+H+cPG9f/1lwx5NH8F4fvf);lineShape=1;strokeColor=#FF3333;" vertex="1" parent="1">
          <mxGeometry x="231.7952047448191" y="498.00989032783696" width="103.43287658655504" height="5.580194930263588" as="geometry" />
        </mxCell>
        <mxCell id="sSOp6Ibu6axcIfHXp6fO-39" value="" style="shape=stencil(lVjZUhtBDPwav6rm1swzIf9BFSa4QjBlTI6/T29cu6y0plO8LYvao6PV0uwu37w+3r3sdym8nk/H7/tfh/vz4y5/2aV0eH7cnw5nPO3y7S7fPBxP+2+n49vz/eXvl7vJcnr6cfw5/cLvCy4VSX1CpfDn8iaIpn8vvl7snw7PK/vcZAxjXyTnj+3LkJqMfZeuH9u3IL0Y+1gkEoAGac0AEEHuBDCkW4+SSiEhdBWNBpCLtPgxYBQJNqclyiAnDJzgAENiJYAhuRpArXNdrgJiCBKCQbREC4cjks1rUxmBAMAMm1dNooUAknQbtTbKjd4lOi4FqaQQPUu1ZMUbZQBQRy2gSWmETF2ac6nLICcouGaDHlECaTgAqgMgb4QbcElt4VCZQLhR0ME2htGpBgDg6ApAIoUroIYDqHSS1goRCh5QiUugf60ekAlbG7IePSCRwrXmhWwCMJ2JUjcxFAaoswyts0Ri0KUh13VgALC1eEBjXNqSb1AuafHyDUBhAMj38AAlgFavuDQIlzBRgk3rSgyvk6ls0oSZwTpo8WAFYHlFQ3gVgNzyHq1WmAafowCUTVMX1tQQCXeC0pGCoL1s6CyG19OaN9xAjzIVwBBsHpDIzGpl1q01gIyghsJtXeL8TpssNdbU6sco6hD4RHEzC4DKm/pzgAKdcdIHdhGXQA2vxpjsjN6LqiwArHWkcDXO/bUao2xQQ++bbSAMairfmChusmeqxtD7bIOelgMSA/TebVhYZ5QBigzrEhamxlZd9bs6VrLOyefm7rT0cb1Ptg618e1kUwfIQmKAZRNeAIn2A/TeSSW2byVZqjpvbKv9vrErCtZKKwK4QbD9PgNgXcIdhXVcapshR9U+Zl+3Qusc/KYR6c9vrgJgLiFFmAv6fkPsJDvRi3aYB/b13Mx3hHfzzOaavzMEvvFIUWceiDNxafGVPYs1+xnIN4sIkarenqQ+dr9YBHovnArv08O24JTnbW5VLGb/ya8F/7fHw/uniYfD09Ply8b6//5TBl5dPoPk278=);lineShape=1;strokeColor=#FF3333;" vertex="1" parent="1">
          <mxGeometry x="382.186360897892" y="424.988913905725" width="11.413410087002603" height="140.57228731124655" as="geometry" />
        </mxCell>
        <mxCell id="sSOp6Ibu6axcIfHXp6fO-40" value="" style="shape=stencil(lVjLctswDPwaXTEkwQd4TtP/yEyc2lPXzjhOH39fqC4dEZQ345ssYwkSwAJLTfzwtn163UzBvZ1Px++bX7vn83biL1MIu8N2c9qd9Wnix4kfXo6nzbfT8f3wfPn9+jRbzk8/jj/nFX5fcL5S8DMquD//35Cr/158vdjvd4fe3uXOPpIkaJ96+0qFb9uHQC70+0kkDgAy+f4AukQFHthTrh2AXXuzDpABoG/CbUCMVKSPUSYGHpKjmDpAYorgDCmR77eUKrEAQKHaA3KkAPKm69V+S1kogDzkQIE7QPFwS7qBFHtAJFcAoAwADau/DZjX6w8tjjw4QynE/aEltHJfBcx/94eWRAl4kNLyegVcCbgKqI5Cz4eKw1qZsusBDMu71savK0CLBZxhBpgtCUXkQWyP0SVcBAAt72gBCUepDgABHiTbxHnnyKHMOUsIdVFBuWpxjqcugHIlEAcLgAyqlMUmQhBAKBULQAxSD36oDdS+lfO2XEtrVbc4WkyUMhUU1mFgKQBVn0TbmGYAyrR6yPd4UIKVMpwBtA2NSZAhSojU1baNOQ8gcYtqXqYasVqoDqwWkIh6bb7LckWAQHEgKSKElKE2MOW0Hef7WK0dvwycQ3qmcCuFZWsCYqC4VmzL5gc8KElLtolAM+V+AFM15Rdbya8D9AzGgycBgCTk+swpqVC9qt4xDVwHKaq+pCrOeAgwD7Fa9aAdPYEREUsTeVe5IW20rgNSG5sLfZIAq+OaAkJiILLlqPZblOkYbKYzbvjR27ahMg3NIJXCoxJNoDSYLR809xlsKWge+iipmkYe9AYT+3asmxRQGl6jPtwIUHmr3OmjGhgqV9Whvb1PUGH5YcTBkaiitlcm+Eo2TAZ843N2VmlsgALwVjE4yAGdCcGYM4h8tEd1UF3kdmX5MIdy3l7D8PDwzjbeT+zZdkW8Ha0SZ9dHp/XZKnkcTC/26oxzpfaVpztK4f5vC5/Y68PHh4yX3X5/+Q6y/N9++NBXl48m/PgX);lineShape=1;strokeColor=#FF3333;" vertex="1" parent="1">
          <mxGeometry x="420.58056109016206" y="432.9908658817037" width="14.776959620746993" height="128.7345521091438" as="geometry" />
        </mxCell>
        <mxCell id="sSOp6Ibu6axcIfHXp6fO-41" value="" style="shape=stencil(lVjZchpBDPwaXlWa0ZzPjvMfrjIOVIhxYZzj76MNmYXRsA1+42hNaVqtlnZX8vC+eXpbrzy/Hw/77+tf2+fjZiVfVt5vXzfrw/aon1byuJKHl/1h/e2w/3h9Pn1/e5qQ06cf+5/TCb9PcUyuTkGe/5x+yIVq+vfL1xN+t329wDsKqcPHRLks4307reGlkgfnJ0qlwzs9vy7jK3F/vmMSlL+3AYlcBvhIkTt8IBaArySuvzDMX/8u0ZxfPcAXKn3BIhXAvwTK0dw3hWV8cORzLwjyDuALuWTwCfAT9XrO4CvIJ2k+Pf8F1ivNcjnjBZyf9fxi8AHoJwd7fqbMAK/0VcN/BHoomo/VQ4oAr+U3DUYC+ClKn3R4TwXUq/om97nBYL/XQNLXi6kAfmq2emBihC8Ui8Ejv6q1yeWiH4EeFP+/Pc56YMC/4qvhRyggg+D5gnOEegYqQbUWoT3vcIDxLGHYxEpq7UWqtsGI1dJMdg5ITbdLZTa+rgER6FQD2NuUKhJespNJHOwcDWBDa2q1vB6grdZLQ3tBkFaHAJ0mqDnHlGpz7zvvHBtri6TaZk5ouA5V03UB68jIgmEvjLrzcHiMwlYCEJ9D5zhHEW0HV5ozk3yq/9VgYCcMBqMOgybyFQfzcGROFmkCImUsi2r8Yl7D7jTtWwHDVNCUClLeMHZkXhzunGsyb1b3Dk5pq9udk1k8XAXH0a82zODS426h0kCeNy4vGuBBpcft6MZ6NK5fGhABS+N+pwHIw8YFctrpQVOPG6oGRFCHaQVOtg5oh5xYN2p1sHDTEm8q7SkAWnXih0HeAVRaB0cx4zCRgJT0OScND14CpKHPTdxrKfhGw8KTmhlu0bUcr9fNzqrMFAFeyPU3Vk9A/elt0XT8OlQ0SgafobK9bf/JmFGNrb9MowJVzPJzMYwWAjgPCQENcRsClxcGbaCz21tCPcSbVwlasADyZ7vsFM0fOMUwmtXC0fYynq8lBD7x2Vcht/H64fze5WW7251e21z+b9/T6E+ndzzy+Bc=);lineShape=1;strokeColor=#FF3333;" vertex="1" parent="1">
          <mxGeometry x="344.108683178712" y="462.40166894083313" width="114.34278219213047" height="13.07669094800417" as="geometry" />
        </mxCell>
        <mxCell id="sSOp6Ibu6axcIfHXp6fO-42" value="" style="shape=stencil(rVjZbttADPwavxLcm/ucpv8RIE5t1LUDx73+vty6Uk3KmqBA32yJI/EYkrPapIe33dPrdhP57XI+fd5+3z9fdpv0YRPj/rjbnvcX/bVJj5v08HI6bz+dT1+Pz9f/r0/Dcvz6cvo2nvDjigvEdYAi/7xeiJl6/n3l49X+sD/e2GfiZO2FYli3b5TZ2KdMpa3bh0BZDCAH6gkAKuVoAZ0SiEBDlmYAJVIFLmkMYmMomSJ4g4YYugUUYpCkzFSiB/yJ6j6gkjhAolrWARpiLxbAMK1FqNhC5zkNdwFVHcgWkCl3ABBKNks5EQNAi1RsHfJ85T6gUhAPiKDSTZljs6TkC3UdIJHYBp0aRQRQ9jtAhP0g1ZNvtBTIknRiG0PUNwBqdA3R9kPoU+3vA7RMDqBsBTH0TGK5FJR8CCCUgwEwMSi02oulUpgqf99e62wdUqagiDtV9/xMCTS0ArrtTx2cAjwKPEc4E6NSwz5116BCFcwMBTQ3xjQNKKt62+6G2qgCcmsZXNTasoJc0jrbbmg6WVHQbeLNDAjUkEuNiouh4BjaNNrnLFXYoApwGzSXKapVgC1cSu8BguvogNPa/ErUrYpmd19suAzXj9YtWo8YDwChlp19QkXofoFmuBnUvogPGA16BUj1KUWDfnSb9UjndsPd5piq67ChKmt7LkRDxy5lC1BqR9zPvGgetD+1bNXSos3K5j8BVBe5idEnGbG2e6LdDBIooUoH38+6swt4g+7PyB6Q0MKtfhDrkkd10NtOKUmZ+LumMoJzqcIstcXkHjICaIChlLp3CZFvaLHo34A0cV2s9OESKNzQk7anRaCuH4rV0rvj3TA0sX3DoCPYPkN128KNfQTSOnS9Dfpmz68eHZxPHUolVYNubIxBAqTJ2B2WrkM9gbzqASvZILoeudCJLHgV3Xm6snJGjLZwMgvG+0layIwOC83+7NPwcYynBM72CTYD+0E85ip8frLtrLpKoL3b/9obDOYF+xNAaXC+LKRnCfAwyVP2bhRPhf6z5XTqsL7sZ3zKcNxpPt3zGU4K9mpBGYiOC+wP27HA5//rN5X37fXH3w84L/vD4fr95/a+/+Cjl64fi9LjLw==);lineShape=1;strokeColor=#FF3333;" vertex="1" parent="1">
          <mxGeometry x="327.76540692247613" y="500.3341609683" width="143.00534386593995" height="5.73475732512793" as="geometry" />
        </mxCell>
        <mxCell id="sSOp6Ibu6axcIfHXp6fO-43" value="" style="shape=stencil(lVjZbhsxDPwavxLULT2n6X8EiNMYTePAcXr8fakaskXKniJv9i5neQ8pbcLd+/PD23bj+f142H/f/to9Hp834cvG+93r8/awO8qvTbjfhLun/WH77bD/eH08/X976JL914/9z/6F3yecK+RzR3n+c3rCVOK/B19P8i+710neF2Kn5COVcls+ZPJVyTumXG8DYqKaNKBSBhalSE5rEBsj0JCa1SBGOncbkAPlon0O1ICGnKzTSZxuENC0SUmegLBmCatXgMzEGQAkb9qk7KkiHxqlpgGJCtBQAjnWgEouAEC2pVQcMQNApRY0IAwjrwKqJ9ZhFZ3RA0AahXAGNGKkoY7XA1AdFaShUdRRqpE8KD4BNKNBqhX0Q2OK2oduJAhr8xR0WLtOBIjj9QDIJxj40CTTWoN8wiENUnyalZr0dIKApp1uUnwgD/La5EGeFNAPLVmaEZ0B5yGzBRTgQy++YAGIBMrZgBkAfJB2MczXTUKs0SzNdKcRQGgr2rBWkOkcx/fmxIEoCSCbKElpYKosxqRMFSSuSANlCwiglkpaagmzt3AERwuoiDXyCOIMALzUG3LxwQGT5LVvFpABe0sh2J6WVQIAHPOgoQkBeabZiSK1kbATcSlX6LUnvzQE8rou609vOZQ5Z/erKQ63qikvKioavLx0hNAn2mfy+N4EQCb1nqs2EQH13KcBvACEDRHR8MIbnhLIXKoLlTGkspTt1tfnKAhrKrar+6RGGgoFXX2yCwSQBwE47bRsOGjKyRbptA8yM+BuHOzmKhsTmhDJjY6cdrKGoiRR10QjWx9aE6NUv9YgeyVa4gRgevQylW4BzNDquzFgV/Eh6cT17RuUtwC8blGpLtRxYlLS1JfwuSwWqlpDjGPjvw4Ig7emU5AHmQ7nuTyds9ChxjfbQHKSQ6XhliXOnQfljZEyTobnKI1V9qo8233Jwbm+zCsHk8y21xjOdB5LyEUcnWXc2Cgu4gGkN9j6kQpEzGKPAAyLpwwyn8TR/k+xWXFgjGQ9VSsPVkJ3xVnEuy6NA9QUS1SXy1rBcL5+9k7l//Ly43KB87R7eTnd/8zv7YWPPDpdFoX7vw==);lineShape=1;strokeColor=#FF3333;" vertex="1" parent="1">
          <mxGeometry x="526.9861930110812" y="435.3892880060132" width="16.063644800702377" height="137.2997198728924" as="geometry" />
        </mxCell>
        <mxCell id="sSOp6Ibu6axcIfHXp6fO-44" value="" style="shape=stencil(7VnLbhsxDPwaXwm9KZ7T9j8CxGmMpnHgpK+/L4WtNivKnqS9tejNXg+14ms4knfx6unu+nG/C+7p+XT8tP92uHm+28V3uxAOD3f70+FZP+3i+128uj2e9h9Pxy8PN8v3x+uGbJ8+H7+2Fb4vdtERx2YV3I/lCVNcHnxY8PeHhw0+ePI84DMFgK/kxuUDVXcZHikUA3d8Ge5JZID77s0FOAcDjxX4SikZuAOrJ/KjqxpafxleqFQDT2B1IckGHsDqPhIng4eRZKoTHiSqJcZbfAD40pd7wXuEF8o2PBEVTqBs4/PrwXl8snXvqCJ8oDLWfYTxbOuPpZnJCcBr2434SgXkN6m/Y/x9IAEBTZVkTIDX3iyXDXImMa2rNQVcLtov4xs0iagdC/f11phmyA7sbVCT72k5bxApjR2fmEICBonE0Jt6BTiCC+XR6cywMVmjPhZq8ZBxWaiMbygZtk5VZjBv0FpCBr7/vM4ATxUUa40Ux+LjDLuh6o7HxGkYPMhDZWugm0T9UyvFMXG6SUGDSaY3FBglcbb42hLAB9FRNw4zwfNGNErGIPZUnjfQnh5JUpRmwRu8c5aGdY0M4ipi570+cchrjaJYg/RKmII1YEBMWhsybUlAmKpytxnkDk83Zktl7RWoqwNxtQaImYpQmMKEaEDJMhivK9xSKSTJGiQQV2WJOBmgma4sEU3mmApIhLJEZmsQEW84mzk1CIjKJpnxioG2pJ8MIoiSNqkZ1M1pJNyqnUEtrCBxWghVrAHsIJmiVCF/tx1P1RpRlFKfmtvyRj26/rxtINBxNXX1++YelSlzmAZ0toeZaJB6WCXnlspQB3Enri1ZIoMyjQgs+/7EwJJlgfpEDWxTryLqvEHuG9iMuQwSV5IlJq0W1KNqkEZB00Y1aAg14DFxTQwgNk6Ux+pTueHBIC3Ryg0VNNCH0NfbSCakHoqziVO6FWCQ1wm1lX2gH9TAbKkJS+C0Kltz5mjSFfBMXuX8VhyDPOTUtcVGfmdArnkKaxP4aEvOaiw9QjBwOmV7ENVDCqKZKJbJ2tkd+BBVbI9vCAkOCD2HRcOVFWoHn/rZdjWI8Nam2MuDCsl7EpW5K4n/lzx/+yWPvbT5py95qh00Hh4Jk9jSTFBG5WonX4HCThnanCrWxryIH/fP/bLh0n6qxUeE5z6yXvAoPkrnphfXAjyPn3oXK+VUrVapsN7StJ/ap8F5vO/LvW39yDNvov23+mQbHzQpgj17cL8bOo//zcv91/H64eWfhNvD/f3yR8T2d/vPgz5a/rWI738C);lineShape=1;strokeColor=#FF3333;" vertex="1" parent="1">
          <mxGeometry x="566.8292121011013" y="435.4739410666439" width="12.425074054241122" height="147.06797636949932" as="geometry" />
        </mxCell>
        <mxCell id="sSOp6Ibu6axcIfHXp6fO-45" value="" style="shape=stencil(lVjbUuMwDP2avmpsy9dnlv0PZihLZ1nKlLKXv195Mi6R3BzgLU2lWJejo5Ps+Ob18e5lvwvu9Xw6/tz/OdyfH3f8bRfC4flxfzqc5WrHtzu+eTie9j9Ox7fn++X3y1237Fe/jr/7E/4ufo5K6k7B/VtulEppufN9sX86PK/sE/mq7DNT9tv23hFH5ZACJQYOmRwrh5ip5W2HEKj/t3YI1EBIoZHz2kGCDNsOnCnokLgSg5AiUy3aIVJFVfXkm3bwlCpwqOSzcgiFEkg6R3tCYPIOOEiVdFkDrlJhcjokXymApEuyVZLeB1BWgaYJyTMsa3WUNVolKVDVKsDRByRi9PxkU2YqoKa1EDtdU0oF2DcqGnieMoinBWLdZDcSum4fx2S92zMAUSvUirF3IN9WKZuGjYJdt28UdH0EtYArxD5r9qpUQX/Fvpl6ylwiMnKXBC8d84PQto6o02AWnEPSNWL+6AQzBVwgV0gX4sR3DrfZLIVOkKhvhbwJqcKt0PLA/YogG6pStntHRrkgaCcLVZlNRJCzg8d7Zw5Jdl3BDibpRAk1eqqqH4T5yba58YBP4sJRRM+fNwI1NP0TsiWhL42ODyOjz06nb+QRQU4EID3ImJEMw8hizjhpQ2GiHuDsTBzJjSJq20TCMp0Rzf+XHaa1IA4eIWPaO5JDAknPi00IAxFx35waq0J6DYBJVrOf+tDQLueJw0SJNuDgrVAVBwTXMmk2yaGCE0QgtWir5LAEu3ICUoVtTOSqcWimRUayUeeBMshBhGrQLBkLHFGRwsah3wEniNg2aE2RMoBGl/PmBCxUu2rU8M4O6kIhRtYhZSy2u/DVfcgCeDBxfdXokEqA85CGMLooJcbKZ6yCi3IWVgLPlx7p+VyR81UHZ7HduRlg2w2YrewDgLZQnCbuToPQPuiWybpG7wrCiDrhht9FnF2ezY9R2rLX/FXreJnZstf1rHnc2Yrf2DNUkc6+ugj/RRh/0vUpWLB99UPEx/Zy8f7V4+Hw9LR8NFn/b7+SyK3lCwvf/gc=);lineShape=1;strokeColor=#FF3333;" vertex="1" parent="1">
          <mxGeometry x="478.9855167958515" y="464.6094510465982" width="127.49480600324182" height="12.799615212440585" as="geometry" />
        </mxCell>
        <mxCell id="sSOp6Ibu6axcIfHXp6fO-46" value="" style="shape=stencil(lVjZUhtBDPwav6rmPp4J+Q+qMLErBFOGXH8fTVyzRtJuA29mUe+OrlZrdvHm5XD3vN8F9/J6Pn3f/z7evx528csuhOPTYX8+vvKvXbzdxZuH03n/7Xz6+XR/+fv5bliOXz9Ov8Yb/lxwjlIboOD+Xh7USj78f/L1Yv94fHpjHyhXYV8yVbdtnyl5YZ8Lhbht36jK86ROqW/b+0A9SkCiBj7gK1UF8NQr8Ji/kAUgVuoNABrlLgGJEogp/zsogCeXAKBTlYBQ5pNVQMrkZBpCgl/gqDeZ58BRAoBsfPCdfAGARlHmgTODjlQ8NemDzxRA6ZVEVQEiJZDpUnWUuLoSyHRps/YXAE5c6dTlFzoVkLfqKckPLNW7bh+oJNmeFMB5aiIv35+og5DWTLnISp39um5fqMnzBNictU1yuNqjeFZuBHkeTxHEs3F6pL8Onr+FWWFX+wCKukXtr5sfXLcv5JuyTxnYV9MDk1/X7bm8VN9P/l61756yjH+EvNK5oaS/3HMgXz2Tl/ZMTIAZe6GiyHrS/bp901zNzIvsu2atTBHFp2tqb+RB/Nm+Bc0oESSYAV0VdKUCAN45XdKcswRqdHxC9RgzNXa6qgGY3gMkNc/qdGsLoNogOahCOM+qzxgAE80zWTZCbHPCbQEUE8U8c78FcDLV0cGJ2aueBUMsAbKwAB6xGYXVHMkn3G7G6Y7bwUS1kMMx0mmbfPPRuqCGu0cV3jLRP1jZ3lFDKTC9wxoEAdba08+gfZAB2ImIkmY4JrIKwACtT3lM4/bU+pTnCgqTpWFHGfXCpwF2MDioFOzkYR9ge9rRxrMfhdXMTl4sEE3a4ZwCVi9m+qdIGckFIy94OcrAB6tfGICWIyuQGID2QavAGOCRhDQSbzgNjmQ1ZApQNFiRygCPAEYFj0wjGW9lNlcr8sHoeB5XUPibRYFHbkC7Dle/Yo2Ml6OmtylWAahaxzalJihO3NjXjM5wgJfGRpi0D4iNx85ZdZQKWlLZRcMaDbA3781dZRqT8djMTcdVEKVxAEWVFYZ1pEnmIfspJLbuLxS35gy3DBacqqdzhw007mDULVKkCPLAi7tSMqVQRjQzuX0RAh5eI2Uq8kDMIohZw7wBWvaABhmAZYWcoEOqANZz+pLqjZDYAChKGrIAjDen+YLtkVRa9t7FvkLtyfpdVmnP79g79f4437Blry5S8OZsZBgP0wJK1Gnyalh6Os3wYzKCrnR6bjasX5xu4jHmYMF97l73fXv+cb1Efjg+Pl7uoN/+X18686PLhXW8/Qc=);lineShape=1;strokeColor=#FF3333;" vertex="1" parent="1">
          <mxGeometry x="436.576952717468" y="498.0671895003402" width="208.75144477435765" height="12.155196487758303" as="geometry" />
        </mxCell>
        <mxCell id="sSOp6Ibu6axcIfHXp6fO-47" value="" style="shape=stencil(lVjbUlsxDPyavGpky9dnSv+DGULJlBIm0NvfV27wIZZPluQthLORZa1Wq7ORm9fHu5ftxvPr22H/fft7d//2uJEvG+93z4/bw+5NP23kdiM3D/vD9tth//P5/vj3y117sn36sf/VfuHPEec9Fd9Qnv8ev3GJYvj/zdcj4Gn3fAJwmUKxgBwBQMjXAeATiUCA8ACQQqUCQKQ4HilGSuU8wDviMUIq/SfWAZVCGAA5UXXnAYGpjEcqGhPkEPRaxQLeK7MKiJXyCMiVKgCkSjIeKQdKIIeciccIKVMEhSue8sglPSQqXIlUxmuNjgIGmMIFRwkA9E7cSD6JlAG9MxOPOUggAYDkyWcL8AAQmfJYBxFYuCCUvAUkABCmJBYQEL0LSRwBnirIoXWwGwGOBNTBB0sNjVkzAEgXlQUQqSYIiCM1VNoSBtSRGk67HFyrHsBwqUklykE1YszBBRxB2Trm0MSTQaW1XZwFMKKGMidYABIybZdoctAGAknLnHTph1wH5N7BS+EcRVC4FUDoanvhkZR8DIRsTrq1FEpapo7zUCrnwrUWvYoaCkAyM5NPj8SgDjO9NWa5qoF8xhHmFhXIpRURYAoIMMlMsysoh0nIlN4M3MwsldpAaGQ15piO81DIZvX+BDDPBwUUUIeYyUULEGQdUh/jJwBEPnUWxmsoAHkNNTvvKZ5IZUSAStEkXXspVwE1UTDkK3BkOebJbDA5FKJ2Ni92RgsBVKDmfu2LwxJo+qp6wjGC3jRSshL6hFpspYdmo3nCEaAxBTSEOmc/lrpGaO+T62N5AWQqIEJUPzXekl40auqQekcu3Pio5XrPFUrRhnBopLC165oEIzkWq99Veheu0y8Rmw0ik0drE/ed59KFgNhwSZ0p8nBUzdLEUAScVRl1vgzKxtOEq1CVpvbUeZVQCcgZxVCuA1KoPIw8XYb82cV4fB5zbt68ufP83GxzxTwf0KSK9jwOEk75EM0475vN+vPZTnOBm5XepzPL3mdLiTl/xivG9HztBbzwPM5dmXAz28jvTDfa/D9KYS5ZhBSdOaGyIVeR7pPXPRcA9MPH26WH3dPT8eXU6f/t2yj96vgmS27/AQ==);lineShape=1;strokeColor=#FF3333;" vertex="1" parent="1">
          <mxGeometry x="278.7701530261654" y="134.542029596999" width="38.692468675370264" height="26.954072104264014" as="geometry" />
        </mxCell>
        <mxCell id="sSOp6Ibu6axcIfHXp6fO-48" value="" style="shape=stencil(lVbLchpBDPyavapG89ScHec/XGUcqBBwYfL6+2izGYPE0inflkW90kjdrZnSw9v26XUzxfB2Ph2/bn7uns/bKX2aYtwdtpvT7qxPU3qc0sPL8bT5cjp+Pzwvv1+f5sj56dvxx/yFXwsuFQppRsXw+98byuXvi89L/H53uIovhXIz8VyoyX1AC5TYAGKjkO8DJFARW1GjEu8DeiTJBlAySQMAoWoBWqSAkjgECsEgRKgHmEK6AWiVGR2iULE1zW9AX7v21ZakOUMFfU3UogV0mKFVyvYMV31YRdROqfkUEUyiJmJ3iEYZHKIIJUvXnqmBDMrX4kriweB7ALZ8lUadAaBSt22SDDNUpmAHIUwFtbUOhb3zVRsNyNQS1WIBQgxUrZrr6QYAMmhPpPqSYgJ01ZK6P3QCk1YiSPJtjR0AOok9tBbZwOBm+jtBMGRrrzeizlRQSZGiy9AGf9fbWj01tEgGGXRMbnAK6AjAVMUDKvC+qgvCtlV9hpGA+o3P6IYAGVRA0WWIVJHiyo0b9+EjHwCgDPlGQLpkUIboB1fVn4G5ZnVjK6D87lSrgFioWkDEvpT9GtVFLUBw7G2ME1xxgbJlHvOQ+J14N4MO9R88i9rg4Xp7qNiB5aHV9XmN4VxuPQFZhdeAGjYI184lu8zDWKXr8TKyX+LRntXTtu7jEXfUdXx8A99P7LvJw1vX4z94ifx/vD5cbqwvu/1+ufBe/+9vuPpquR2nxz8=);lineShape=1;strokeColor=#FF3333;" vertex="1" parent="1">
          <mxGeometry x="403.00594114389037" y="124.21388795730593" width="11.078681124353807" height="22.640597060565256" as="geometry" />
        </mxCell>
        <mxCell id="sSOp6Ibu6axcIfHXp6fO-50" value="" style="shape=stencil(lVfLbttADPwaXYkl931O0/8IEKcW6tqB477+vlQFpSYlTZGbLHO05HCGuzvEh7fj0+thkPB2u16+Hn6Oz7fjED8NIuP5eLiON30a4uMQH14u18OX6+X7+Xn+/fo0RU5P3y4/pi/8mnGJqkwgCb/nFxwotb9vPs/xp/F8F8+JAhtAppD342OgbuMDhbAfnxrVYuI7Sd2Pz4WS/b40KmCBXClbQKokCQCip6gk6gCg3wvdAJqSgGroVG1KNVMFgCq+6Bop931AS5RsSjVQYwBolJMHZADomlK1AIZC6pla8zUUAYC2KrosndkGKK2rPiTQOAW4lCbegJY0peIAjRgVXSgGq26mCBrX4+KWd4CyhDrdia1ae6IGim7q3+IBFUmDSYpPKUagVuXENq4HmJKqv1vxtbrodxughnR9UJbAVNIVomWpqlhAp1VqLiV9E5BFOxXLksqbAUuasdhOq4EEpKScsDNQWDy4rSXeWCEgA6lyogXIYqltQPV+UKLRMFbH+amh+i37AA7BG0KJC8hyun/YVrcCp7EWISu5JjT6km/E5Fo0Z/R72VsOje8PA0qlZnmdRhXgddpGrVzvmN7e5YSyq7pDcUihHD2vyHN6NnH7qIqjgyL0qBDtCiXDFWLy4zgLFWDSqHK2vKYA9RpX2pC6DOjtGqJfQRjuQXogE6uNiWgw+1iIk08pgaK715LGNzQrF2nexaONPa9OcGU5M25z6meGfgGdA9jv6iosBvmrKh0/yhgYGMHLdHoD8llNMK5UwQQLK2tmaH5eDjnv8Xo4RLbx/DAvc3/b+R+8Mvw/Xh/+3U9extNpvt7c/+/vM/pqvgvFxz8=);lineShape=1;strokeColor=#FF3333;" vertex="1" parent="1">
          <mxGeometry x="513.3866998846074" y="113.97334816685009" width="23.345202833266967" height="23.906762171014407" as="geometry" />
        </mxCell>
        <mxCell id="sSOp6Ibu6axcIfHXp6fO-51" value="" style="shape=stencil(lVfbclshDPya86oBCRA8p+l/ZCZO7alrZxynl7+vXIdjI/tspm82RwustFpgkoe39dPrauLwdjzsv69+bZ6P60m+TMyb3Xp12Bzt1ySPkzy87A+rb4f9++75/P/16RR5+vVj//M0w+8zLlbKfEJx+PMxopTTv5GvZ8B2s7sGFAoyACRSbABQidsASJU0LwM49c8dUAJpXAZI6jvuAGViWQakRBxGgE0RlgE5U9URECGHYkl0HApxXQao9g1ckc4KAJbEsXCpwC2peA6SqYAtldzr2gFsI4g0Uy0jIFIB0ijRkzbxJbRCJB5XiNxZLW0pjnWolIAySqLgxEoZMSg+qVgXGrzybABI24qm4uIj6E6TUXQZhd2sjVpyfD8yfDe+Rmrq8hkYxLOPt4KhAhigjoRNEnAFI1i96ASltJGMKxjnCjhruQFot7T7AOPgGqeSIFnbltSv0ABpk10cy8Zmy4BDEW+RbJXBnVZHgPl4Q50Tu5BnQKIEPNUATtoNlsEoyLijTIpaP9+4EWU0f6MwWsUnBjxPd4kPgK/JKLCLRzU2nQbn1/BQuxsP5m+B6sjXOq0Bws28eSyAzL13/+QPc0Zmd7EjB+2pejsyA8+gmRv3xpoPZjN4QKIG7y9V8Qmi3uGb6RqwzvPnGdBgIyRzRNc5AUvJ8t5c6yi8g5kltjFNVv0AWFvv8lgIS5ygg9DfFaz9ErpG+jJkgZeRWyWFLpWF+OgctVACymNSZ3cMlSr9FLvUrGfsfpEpO9nBczxTGzVUYDa1348v1og206iM4QlyjdE7ncUDeUbpLXi1HRSf/aWo9PNw6QlSqktmQFqzFnaXIpMHIlxv7qUM3wex+ieLcUK3lv9/dn0OsB+XV97LZrs9PxKvv/tXoQ2dX5Ty+Bc=);lineShape=1;strokeColor=#FF3333;" vertex="1" parent="1">
          <mxGeometry x="97.5045257747438" y="234.44063374159873" width="27.22675842425315" height="20.947066876464646" as="geometry" />
        </mxCell>
        <mxCell id="sSOp6Ibu6axcIfHXp6fO-52" value="" style="shape=stencil(lVbLbhsxDPyavRKUSEnkOU3/I0CcelHXDhy3Tf6+dBdyTHlNtLd9aMTHcEaa6OFt+/S6mTK+nY6H75vf8/NpO9GXKed5v90c55M9TfQ40cPL4bj5djz83D8v769P55Xnpx+HX+cd3hdcE2h8RmX8WL6UBix/v3xdALt5fwUoGUgdoBIkDQAETA7QGGoUAaEkBxCGlO8DuPTfHaAJNEiJGohPSeOiswKjAyREQAwQCM0jVIECQMpQqwcUYL4PqJCGLkmvaj3ASLQgpHZ//aW+C20IVKL9UfxcIHAKWANpfvBSn6z1/RHUA5ghRwXbaHuWSaEGEXID8hSQhBGogPoIbF2LaiYoNzVIQDLb4PmUTH9RSvZbB3laWyO1ETQPaKm3YR1gg+SJlgQpmGxukHwNYjxEABwdw6SgQUpkPfEpmdhKwEO+4cEAEg1fgezVZo6BgRoEcAiQQvkbbYOaKeQZIfv9G4WmetHilWvXUP0r64P9bbLRezADBfubmYinzCoK+tkqaBnWR/4r1tDBsftQra+XrpLP/DnIR2kkWMIB0jqeB8kCRADt89UBVrFGdoc3jp1beCJYCPY1E3czWAc0KIPfpX4wrgPMob30zQxyEMGcQW78LjIXuxoUX0MpUAKv+O8Lzz8A7OHzfvUy73bL9ez6/3gfs0/LXY4e/wA=);lineShape=1;strokeColor=#FF3333;" vertex="1" parent="1">
          <mxGeometry x="105.5692881825637" y="233.17507831822377" width="8.061673860069277" height="7.015691424187935" as="geometry" />
        </mxCell>
        <mxCell id="sSOp6Ibu6axcIfHXp6fO-53" value="" style="shape=stencil(lVfLbttADPwaXYkl931O0/8IEKcW6tqB477+vlQFOSYlT5CbLO3scobDJT3Eh7f90+tukPB2OZ++736Pz5f9EL8MIuNxvzuPF30a4uMQH15O59238+nn8Xn+/fo0rZyefpx+TTv8mXFFKKYJJeHv/CZTKf9ffJ3XH8bj7fpOYtdzoSL3ATVTCgYgbTlyE9DYn5ACCQippRUFJkYnVJJoAKoCt/uAHig3A6gqWwCARKkaQNMtQEgcAgUrUxeqGRzRqGULSNSBTPo5Fgso1AFrlcmH1Ch3kOq6cLwCOhXAumgAVqYbHTYRuXg3fXBE0iOSJ1HACbFTriuZAOuYKZRVIioAROrrVIPMxULcLeBqyG3STJWt/ZQ0CCl1apbDe41s50EB7gTNDANvaMQrgABZtWBa9ICG7NqpBk+aAQfNK9uq1i06qmq1muWgiQuA9AQQbw0kq4YkzhoFX5ZK2qqk9mYQ0iSrs3df7oW7icsegO6ZyRorQEMl2lf10CmAljLZ25GusB60gMQlLsN62CjRSBndGp8GhOV2v5qPYYfQrul7UKQACkgbebcnaJdrgLREf5FpH23AS6JesvbWzKDLmBOxmwX6ssW2+UgsBcazQ1gUuWpEEUi06rkZ8l3ZTosZuC4TWzkF3l8ciK2aKiYIXueuaKNXS4H9Nb1uTApLVdxzqKtj3Jqjpqa69Yx6jg6GzccP4lEz1uL0QdOIjgotOf1Rly2Bkps74RT56cn5w/X68D6mv4yHwzzl3373Y72+mv8SxMd/);lineShape=1;strokeColor=#FF3333;" vertex="1" parent="1">
          <mxGeometry x="109.55855568952734" y="334.74646279610806" width="6.540602346493415" height="31.481631805712595" as="geometry" />
        </mxCell>
        <mxCell id="sSOp6Ibu6axcIfHXp6fO-54" value="" style="shape=stencil(lVjbUhsxDP2avGpsS17Lz5T+BzOEkiklTAi9/H21DV7WcnJC3zYbndVdR/aGb14f7162mxRej4f99+2v3f3xccNfNintnh+3h93RnjZ8u+Gbh/1h++2wf3u+P/1+uZsl56cf+5/zF36fcJGSzqAU/pxecKIk/958Pck/7Z5X8kK1l09MU74srzT18nGirJflY6Iae0CgnACgENcOMFGYLsunRBx6jykEIF+oOIMoAYctfqX/fiAB9vBEOjl5ZI8wSXHy7wael1fS3NsvlJCCSlNvkEU0MwQI9xFVSsBlM0n6lGXLMYiplJbSJcdWpchp8VVUmFIFgOB90EoVpU3b34sGxRqEeDBJQB4sJl5DogDykJW496FEysCHaaJYPaACDWZxqd4kBtNCrTbZA97L9zygtLyuAcCHWlq3fDJKBhjDKmAiVWug5BNXEKD68i6ZFGTaAOoAlko080LwXmukAKrPVLjMKZOCDjJAcoClWi6FKfdzxnJZEaA04li1XABe18lziQEiKKaaqUgP0Nbm5wHSyn/ltCIN0sp/AUibnpcAwWlI2OkBUCok6NGkYnFDmR6cLtIo9ZNhtQ5SFFYzoHhAQB1kpTFoSEjDUHzzvEd5GMrbehStDWMDlUIC8nCuRwNFrKI6QILjeBw0mkkAj46jzHoUjeNxWFoHFQzwTlukUX3/L2BmCPYmKdpAjYMGH66wnNvItEJqNx7lHlADXE+MqbX3oUbIEDl6k6xrI+ggGXp0DjRa4kIjwY+9Gy+ivKwvi4pEGdQGZ09zk7Ut0lD9qp4FcpBEXxu2XQsoptnrXsO17Z7b4FoBGB0fhslkgAo02HFEnUkMtzg7UDmGSEaLaAr4NZFxx2XKfdpkGc8Xjojah2g+gqCstc1lkbcTCLBnmewr+QK+n9pMXMkzOoL6NUPw1hB9/GVqh+Sz8nbW6Vdca9YIvr+wxiJvtAD6bOAdq3KUL5PvR8WV41sYrgwyXPSCPxBbE1XEnJ6ar1xJXL/CsIeP+4+H3dPT6fpk/b+/L7FXp7sWvv0L);lineShape=1;strokeColor=#FF3333;" vertex="1" parent="1">
          <mxGeometry x="109.47293548966991" y="480.1599020190183" width="61.87454397349711" height="21.63184581992573" as="geometry" />
        </mxCell>
        <mxCell id="sSOp6Ibu6axcIfHXp6fO-55" value="" style="shape=stencil(7VpJchw3EHzNXBHYl7Ms/0MRokyGaVFBUV5+74THaAGJ6Zzw0Q7fhsOp7q4tKyvRl/Du6+OHLw8Xb7++vb78/PDb08e3x0v44eL90+fHh9enN3y6hPeX8O7Ty+vDT68v3z5/vP795UP/Zf/0y8uv/Qq/X+1cMrV2K2//uH4To3Hpr29+vBo8P32eDappdjEI2cRybuCjqX4x8MnEfG4QrAlhMXDZtCAMknFuNbDG2nODaE2Lqw+mNfH7Zux6A2uyuH5K7LJ+noyQlzVExsbz3xdnQl5+j6SIFJRs/Pp7V4wVSa7W+MQ5s14YhBGQI6LBWJGzmkxb79CT4oRBNrYtBimYpAycqWtQs5dRys2k1Qd8U0SUcL2yFmpqJou8Ic92NeiVVYUBXFx9CHhIcYd0XG/Kgxd5SM6ktTTQfk5kOuJ6a+/4JsMaiilr84RovEgc/t1Wp6OTpdGvtzqdrOwftHtdfQDoVREln0f1Hz4UGaXgt45uJgqIQV6pRYEBWWESwrpWK5DZK1CKJq9RAvYXgcOo1kw4HEwU/VDiiPoE3FmUd0Hl0GiIA/tv93QcxTyVtxoNgBmqVtRvEKWBO9BoQNzUeIMBNRDQP4iw1g0EUhmBPsNWCmuHGVEaQL68GmRnoqjWPQ8d2kTHlcItmjUYl7TdIUhsLWFDbxSfiBJmIiUOPiSRh2K54xAl1UC5DhSa8qDCmhElwqUiyxsGaY0SakkBWTeg4vMDFs6cdpvTTjmdRtSnO1TltN9mnGYCqd6gDlV0HBqy0ATKcsYBKokfgs0UEVbMGx67iJtioIAtGrsAAVHeeADiGrhnFg0EcCe4j7iEeKTO8IgvJTmyXLvBl1RPI+pEf3p1CacxFMPqAyZGUtTh4F+HQR1Ne5ZpmnFgslYYJOwukQ2aKu8wdpfDwI3l4AyXqtvuoMh6YzaDbxTyYT641QeAp2T3flCRmRnr+VDW0kAtRTXYj1I7qhVdru7gRuUcBn5k5nYesqmrAdZQSX+OmTnRULX0gUOWvBkIH4Bz5DQeqSiSmDeotJLdg0NST8cspyiIbqCB4kd13TZwA+cm+uO1HEBA1umPgpnE60A3EHlwO/2JsjSw/JfKTifhdOOZmPS6Xge0T1loivEN1jxNxCqu33jkoizUduKQNCrtOubRWUjT1jyKUYLHexqIadCts2FiM9/Bi7JA4WVqniIhBqXN/dzkBO0KxgYxKkp9Rq8+YOSqHQ4GtPR11FNrZdgYpZPSGKJENDoFuWEhD3HrNiumT9/YIhuoPKCWKvEM7NLCB1RrLOyDF2E90jq1p8LhyiQaWbjTzuv1uxggIG8TA0HdioqQHURtqlTJxCx7cMfAA/HWHOAhZWkX5qsoRTmq0rbao7KUxOp5kKCyqniktKE2JkUU/ZwtT0+XJE/CskSJ67NIrZRHq0wSi6oMUEFHYU1S36tpWzT8GPG3a88OSj6Vhhf93NKA3aNai1xlWuVqBQAkNRvsMS2nVV0x3BsWCHVWLZfZi5rlnls3LbdFqQbUQxY6DKrc4LrYRZq6vaPyZ6bdrUnxqlPWvBmIlgDPISiDgVx0I5MxeK0MQCxICG1FEsrgGDiQiKYpKx09NE2K3dZDXZKT84GXyqLH+kjSUd515OXm7y3XKvKoKmlrhljl87ttXmlxojBnCFbST3cM/AnFFHT7DevxjHItqUxYv6sVZ/oK7WJgEYpZgWGTdp1lztA5tLulsbafDZ/A16/CgVy2M00vdbcuG2wxVeOwJMbtXuhKZ6jjFGai6OoO1fKpI/iwSvO/RhpXYf1fGv87Sv91aRw+7ExJKay4A706AS6mlIx8LEYT21PUKmXe3sDDVR7wxNzTTfJ60HReipMcz10o2AQiuZs0XjWy1YpS3o5/m9Z7yqavHPvQ2brktnWp6vNiogwYeSoPmLmUaaflj35cQNuPk4ez/RiTDKzEpeTYBxhI/bOODp5Gljo67ZKsZ6eVmlH8lgcnhWtgKyndvtzT0uktk1DGYnA240iGihqX+iOR/lkk0wDM2E3+uAPGZWtRpfngDhSlrkOrF18CL0ten9sD3OlMo7eUei0FdIw26Swl2XjsnJPeIDcZOzSkyYekgGxTNIKWQIARJLJEvav3IG5AploUnJM2DTStvEPcxq6XJ6G7aIrMqPMx4BwfIAR9RGE3OTBICucab8UwUB3ntuUBTquO67tF4bBKg7zdwWo9PbFEGY+3JM8M+AihjK3udCfbQUCpMv/4vc77Bvjw/TXST0/Pz9e3UOf/82un+Or6ymp4/yc=);lineShape=1;strokeColor=#FF3333;" vertex="1" parent="1">
          <mxGeometry x="94.83128560919727" y="223.67982873090693" width="37.45558356187007" height="33.07052565027993" as="geometry" />
        </mxCell>
        <mxCell id="sSOp6Ibu6axcIfHXp6fO-56" value="" style="shape=stencil(lVbZchpBDPyafVXNSHNonh3nP1xlHKgQcGGc4+8jslmCZqCJ39ZDt0tSt45JHt7WT6+ricPb8bD/uvqxeT6uJ/k0MW9269Vhc7SvSR4neXjZH1ZfDvv33fP89+vTCXn6+rb/fvoPP2depRxPJA6/5odMkf88fJ7h283uAh6VhDt8qLfxEoibwwtpuY1PgWJyeKYE8DmS+vgDNb2NL0whd/gQbuMrk4Y+nnQbr0zi8TEvFbtKaFZQH1AuVCMgNCrVEUqiliGheQmqUBNIYB+SZVURwUzkCS1QQjmYaYonFIrARs1k87awIBMoq2qvmxEUCK2Ziq+SZfXXutcJQkE8gSmCKmmk6EPSRAq8qqEn1IJDGpqnWA6grBYSd92vVIGXLGn2IVkDFqRDpuYJqVBBDdT6sqZEgszHxKUnNNRxeSBYD4IZY0aoXdIJ6mBWk04H8y9QOobzFDpLHXASNgW8crVBM9mcYT+4rUUCqqsp1/VoWnbFdYIsOZ4Jek9q9YSLOlxnlKFJlRLqOds2qU8igiSsI4onaKWEmtQIeSAAc5iwHSGblh9aWdmWDOjqcSfai4CQxqWbbGeAKo1b3Voof+hsSHVZlNer1J8lhmcwmHLfonfGjPQ70YaGAjwvmp7xES5dG6ze2qIUAT4sV8UZL1TATBrmBdvgBgKMeIH1GeIxBdFVMuQb0zJv/q+eEV8Mg15mEND3gx0yPGA+eATfhdvHv3v7ZbPdzuf65e/9fW5P820vj78B);lineShape=1;strokeColor=#FF3333;" vertex="1" parent="1">
          <mxGeometry x="278.24462628951983" y="131.7013342921597" width="28.718704073323124" height="10.305855001585769" as="geometry" />
        </mxCell>
        <mxCell id="sSOp6Ibu6axcIfHXp6fO-57" value="" style="shape=stencil(lVfbchoxDP0aXjW2Jcv2c5r+R2ZCClMKGUJ6+ftqS02Rlz0lb8uuD7odHckrfnjbPL2uVym8nY6Hr+sf2+fTZsWfVilt95v1cXuypxU/rvjh5XBcfzke3vfP59+vT9PJ6enb4fv0Dz/PuMbU4oRK4dffN41E/rz5fAbstvsrQK00fbsCxBAohGVEaRQ9olWKFQAiheYBmZIuA9SCYA9IFNIyIGeqwQFqoQRckkrZW6hMnJcB3Kj6oC0NBeSVA7EvREmU2zIghf65AzTCysVEzQedK5UCAEJNHCBVGHRKJMUBWKmBwvEshikNwCU29g3UgDFLoJp9zCQMzjOpr7P0F7fPK7FPUelkX+KRVt89CRrIgcTzyOquoNtyJK5jSiPgUb6w5hKy1QABzAHvkr2JqAiVmi+aEU9QlpSKt6ACiSdCwZdZCzGyECmVEYAUw4ingwXuZL8NUBJfh2wWUC/ImCXLmyCJkR7ipdIXlVoCZJ31M3Ipk/osxQalnssokzHCSptMNu+SYmYkKl7DBIYs1u7+/3MfFbfPl9GfaA0ImkEsgGEcFiqooSNFTyQLuYLRY4A8lLnAIlg3jkTC3LYY1I+eaT6ioGdl1tR17QMA1D081tkWlQA0xpI4NIMtGUjFrExD4Zri8Wmy59NqOwOaVWnUVbVxG5fPX7aoK2IEwKRG2Z/HKmwBD6MKr23WKerP556AO/XLLGYQr/Vy8AppzYyGp3VCGGZhgyuSjZnqiW2Khiyo9sX0ahYWoMG2ozXfzZPiAJeqbTzDWMDjeb5vZ+6Jvk2L2UafTSNBDLZcDxuDtX8CzLBGKYOo4q2nWa95CxqwhTobC0IJxdBm47lBvbi6tFw2N+m75d2I1lXqTqeqwHV4HnZtkH7zxFr164dKZ28qELE5OczJ8iH6/edCeQfAHv7dX1+2u935+nv9fbzv2qvzXZkffwM=);lineShape=1;strokeColor=#FF3333;" vertex="1" parent="1">
          <mxGeometry x="275.0772229731224" y="132.35990830131755" width="36.33372229614383" height="9.922759877704266" as="geometry" />
        </mxCell>
        <mxCell id="sSOp6Ibu6axcIfHXp6fO-58" value="" style="shape=stencil(7Vrbbhw3DP2afSUkUhfqOU3/I0CcehHHDhynl78vpwspI2rnGC4aICn8tl6TM+Lt8JDak7z5cvvu882Jw5enx4ePN3+c3z/dnuSXE/P5/vbm8fxkn07y9iRvPjw83vz2+PD1/v3l78/vNsnt06eH37cn/HnREyaWTYvDX5dvGqX4zxe/XuTvzvc7eVZqbZKPtT/huoJQiZMCV1KgEBvlNClIpliBQiWpk0IKlBUolG7iUGCKGSjYAWYnJaHEQMGMDrNCIklAIVKLXkGRQqBYFoV2rKCUspdPQL6Qqje5lGP5TFm8TxOQT5SdhwI1EAPpSTOyohGDEAjlOSlkpMmBfF2yLoNCsHjyLD+ecBThNBeOPaIhhULsKk1JgUc59owZCoEqruU6+yj2Wr1uciR2hUYRpFAqPefH8xNVELPUvMmWVgwqOZtTXZQtLgEoCIlL00IVpbV4NMoFGp2Tj0LJlECcc/aIWgsFEIbtALPRmqigI8WeBgPjc4/kUaDDDBbNugKIg3URV52moCDSVm4heoUGjLZqcIgaQ6AAQm25lpYzoeyL7PtIUwipVl4OY1qlDJKpUVzioMBopTBnRjOMAa1zvH3IR4jBi7zaCYGHlvNogU1qsdcStaJOHpYDWZ68KGRqEIZaf+p9eygEUtT6l7zTEfUjUJXZhmpuAHkqhpKu/rWX3/XqNMCYj2SAgRrDhjBzOdcM87QYAM1uraOYridS8mykCuzOlgjqFCIJCJxlsqNgNUDe2Zha8QoRKVhuZq+QQeDaQiM3G0A5Gzq41lC5s6brCroELlFAXmq9EewijVJjB6JDo1LFr1CXGw2CkimIQ4EI6blZLbPVhgKMYKb6drU1RBSI3LvZUMi9zK8rDNzdIR+aSXSpIHsDKoi6sD2zAfXoEj3hVsbsTXw/3OIA2puxu+q8ZBQd0bf+uJ18gpQ7LljMiAOQulRtsL0Ff34DVlSfy0j1DK6upYPZavAjQ8XtPPp2WxmOMMsov+ERHKmKO0/AXLj3sZ08arbFU2c7TwT+r34cMXsRw1Mq1fsTlYz1YXeehKFukS/Q/9oH5B2UKpCvS8NpsEOZP5d6Qewo916xr0eAo8vSwuRR/nCv1n0nQM3Gn8fqEeX/Wi94hL9Wj2gIWes9wT5j1bHUo6IJpL99l/8F+t/nW+hM7wBv3WZtq0dEHF8obwq6ci408C9Ll9LggFDYj4GmIIhoVp9DRfui6r/jjQsN/F/wRoSMr7zxB+GNdeGNBXKurSW5NyglcCSrF98VGpyAs3aStdsqIBhLuqwhBO5Rtk3unEtWImgC3pDMKTQKiEkVD32v26PX7dH17REK2fffHgW/DDKFAmwwL3kMC/CeRnSxgeFC2xT8fsqaCaIx1c8hJfdJ4HADNgcuF3gJaQqOKaUMkV6M2M1vsG8KqAWJvXa7grFpNMtucZjfYLFHNxFmg/NSVFj+EnwDtSOhlTkPnwyjBRbov7pInXPpe1ykLveiz12ksld4vUidpoyf+yI1eVpolYTuUY2Wzv6xb5C91hUcPd8GS5RB1ROkiAkSj6YxTIAZx+Nx40R9E3Bdnv19X+wQfkSnHJcPEIl4XGh+kw/o+SNAO3kAjby0qACh1LDXDeah7/6PkLSp8w+Uj/7CReAIKdwTfpQkpBUm7xaVBe4RTb64RQqcgV/6G5/n5e3Dtx8UfTjf3V1+j7T/v/8Bkn11+fGSvP0b);lineShape=1;strokeColor=#FF3333;" vertex="1" parent="1">
          <mxGeometry x="393.58852973635226" y="120.2360066878631" width="34.70561067500171" height="32.52339774764539" as="geometry" />
        </mxCell>
        <mxCell id="sSOp6Ibu6axcIfHXp6fO-59" value="" style="shape=stencil(7VvLchw3DPwaXVl8gCR4dpz/cJXlWBXHcsnO6+8DRuF42Nht2Tk5im96bO+QBNAAmpib8uLj21cfbm9y/Pjp4f7n29/vXn96e1N+uMn57v3b24e7T/bTTXl5U168uX+4/enh/tf3rx9///BqfnL+9Mv9b/Mb/njElRxUJirHPx//knsY/e+//PgIeHf3/gxoodYdUEIr1wGSQ9QNkEbo5AnSQ2kI0HYdUG0PFffQMwG0kNMGKCNEIQANKW+AmkKuFCBxAzQJIxJAD21fUu8hs03XEMcG0B40EUBCww37CvIEaUH6bocYQySbkBgGPKKFPiig7abWHBo51+kb+7n2Sp9gx5TgXHOo5JhaCXHfQ4+hkCXZv9MOaBoqOaXegu4B0XpIJILsTPJu6laDMoAubz4AeVnmImCU0MsOSKGQYx2CMToBZNPma60iQNiS7JQG7iGRoB7GWwAoISsB6IrIU4wqW9IIFTZt7k1owwADjlXpE04Bdnhfosxkj+jgrrZrZoiB3GcRRAGOysyBB4kgM0TZeaMrJUszddoDog8aEEPQcgZgQW0B0cUBiG+ohDQQwLKcsTXawSzDWMBoyC1JCcB8TT2A5NEZkW5Jg2W5Gsae5ZTzvaWUVByApfa6Tv0ESOQJlpeTA0RCTMXxzHwC2XSRkLs7VuKtVjENB4iEmEoKuh+rOUsjzleic+/DMtcAeScmIwGWIPJASxvNVHJKHtAOy3zhktpB6F+46cnGJKb9sc7UzSztDGcRwkLUu0aLNOK88xmA0YzVP3WnmTpWrr8GgFJglnXMDgOrE0mr/LhW33eojWsozPlk5fGj+taVJ69ZOu6ukY1tCcD+nXfXsJajE4D1CyXjE5hrJAl1t3Su1DVSXBntAFh+YK4Rys5jdgqNrMjVATnRz5e13M+1ehASPSlhxSfLFS9/voUCfeKqbS7bzMqW/fsTzT3ZFWORNgLmpqLweVbsWRdaBnye8Zc1GhDKT6TCjHGW+OddkaSr27raUIJLJ7qBmcz3KDPCZBXM7KL3Jxh3sJJedGWxw4U6byhLaEBe3OmKa7utBxAGyEhePdLS00697W5qqVYI281A3v1U0+phLweOojihdZWK1yINmjcddNNGXrq70oiUgFPBrDMSba1SxkQ4AbSPCUNxSYy+jtL3tOdGVqSr6T8+rzSFKLKRGp+xch6Lc2sIMlm/k6ysZ4+EfvtqV87dAonmjsE8S0hCF4rpwNyaFVMDQ7kLjX3zOWx38hJarqVkrKWsA2OBJqg+Nd522h5kP9NWqc5odU2FirMsCeEyfyU8JaMj5qXS0I2m6ME4OGG7YwUks7OlEQgESxSDBMIUgjIChHiemalFBBTmqsVppcpjTTCVG6Cx4KnofFY1s2Odipsr5JlwM7t5Z2khx9rVOZ9QRaI7RWJqSUxm9IBBs213FUPnEp3ftJmSKp9OyDTLsPZ/Gg5orFGZcboGyDB9yVdXna8ggCXPeeqwJKVEZhGMQj137+ryuQGUyTBWmTqBgV0FiGBtPsUq1iwopucpkjBu7SubnQCdlf91kfsJwE5ptoBu00y3yY5mpmsQS1vDIi7HsZsuA+BdQ+a14ZENTiFKU1bBpqR12nbOJs2xRuR2GADglz5maejm58UV24M6ZahyRSK6HNdpq2R9S4p4rFToSVjfGvMx9p6dEVha6LEWJ3z2Rtu3KYeBtyovf/SCyki9tV+IOKYy5oYSg/K24bNCcKYZtoeysvIpRJ+IuAZEVmlZPEMUyJjf+eQjjZ8aREpkBa9Zm9KUNYkM4qHRSsBCFJZkAcTytBluuBBlsuRXA8qR0c7VDNP1nfzUuEInA4sTK7DY7UetKBpO8Zbl6bho61TzsQxkpz6cFsvo/l8Vuh0B3wvdb6TQZaf0DApdO5PunsAsPVlIvgYwfdMBmKWrE67MlExUFl0l4bluZSquk901LaXmGvOBCKq85isFr9O18ISi7gqUTx1MoR2e0OkV6HcB8Z89P3MB0U1A/KcExOQmMtK6EbkMqDj+0Pgteo54F9AyD7SKSr217syHfGMiSofRSsMLEIl003Ogbt+08Q2bbJSKcyu2K9YVz3suGLZUGpmSkeUNQNu3tlZ8BrCrvYgld3qiV8pIR09c7pkvQd9tX8EMNzCdZz5qIGv64thB5nSXFjkcvrr472owQOm55JNrsVDxtjezJNWwIRaqBJaM9xmVspelWajAeCFsTofX20Lpbg4agYUTbT1FL1zo0xniiCawYGVLqgmdwpogNolhAODsFukdun0f3OkbpzK38GzR+SSqREfzgw4Pfh/HWtX6NziOxebR/5fjWH7acF6/sXhw84wTwFjDCYeNz7n4mczZ0ZMn+KnPxnnJz5XOY2UNuptcnbxEluRnY22RLETVDXy1RMdE53yvewJLuN/n15ftn8X8emK12zOYXx95ecIZwObXG9Y/eryGdRkQ0fumjsFYQJxSUmkfMHVzADQuQCWUfJW/WFML7uEJWUIU73IHZ2Pje7gde0JPEhfUsy9mhatXP2U1XFcBMJ/Bp2nFzR5JpXrS3DTMrvILO0koQBX+hNKxOilPlJUNY7oMqhzaAkB6n503LzbwlOIqP64JgVAKFP7W4pxVFASwEDUAaFB2bqxLnPegcEqNljMl4SW8nRt9PSMtGfykT7BpIgNAZp91IzvWhDnLKlOq4GZ84c+KZXqX+9VvwD4NsB8+v3D75u7du8f3dc//xxd07U+PL/eWl38B);lineShape=1;strokeColor=#FF3333;" vertex="1" parent="1">
          <mxGeometry x="498.62041768716426" y="108.23945627072601" width="55.28995013322174" height="32.6321666386433" as="geometry" />
        </mxCell>
        <mxCell id="sSOp6Ibu6axcIfHXp6fO-60" value="" style="shape=stencil(lZzZjh3HDYafRreN2pdrx3kPA5YjIYplyMr29mFFqDOnf/b5WgJ0MZohu6tIFvlzqX6Xf/rzwy9/vH+Xwp9fv3z++/t/f/z164d3+S/vUvr4+4f3Xz5+tZ/e5Z/f5Z9++/zl/d++fP7n779++/8fvyzK9dM/Pv9rPeE/3/j6YRzrX/jvt1/Mo7T//+Kv38g/ffz9TN5O5DEeuSP9PNPnIw6ij/1MX49cX9O3Ywp9Pyqspx29nOnnMSbR13CiT+lIuJ4i9OWohehFnksCIP92RHm+rR/kWY85TvQ5HSUT/TivJ5eb5498pu9HgP3Wo5/1lecRItKf91vCMfD57WzOJe3fvKCv5/WXgvZc1R6KaQTlWc72X8YReD3xTD+PDvZm9PVEX9PRwX7cfqtJDOWfz/ZQx1Fw/fG8nmb+AeRTjnnebytHA3uzv57l2frRAtGXs/03Oy+g36L77XFb+Av6eH5+L2gPWf1VbyjPrPLp4+ggH6M/2+cw+YN/y/s0Pegfb3xB3872M8z+8flyXsbYAecV/fn5M6D9GP1ZXzMdgc9vVPoI6+nHTEpP64/h6J4BBGTxsBVloIi3AqJ7A6nYImIIykAxIA4NkosBnEoK22c+M4CVpriD7jMD7GGdY78H0LMFyjyUoYJhJ/PLVRk6McztqJ4YJplq3FJ/MOSNdq4ZsjPWzIehKpowhkKnuW9n9cTQILxatBZ8ZgyD/G9wmi7bHK8Z0jGqMiQwPgvYnoFcqkVs8XnG0CgmDAUh8/HOaycTtuU8M4B517xB0xPDJIa6o96DoaKUatfAYwx0pltwmq54RNvDCz0xVNC0RXrPgG9oCi4WA4H9rtHwbtPTKc4YQNOGDqp/Axygnp0TqOiMe9147omBjmj3IatuMVwzTMX8iwE2bZBiOCkRaDBMoUGxIgobjz8/M4DiRnfu/oZhHqk4BhCr4RAvpQFuZhrwcl6DoKExqJTMuugNBnXOB8jAFbmZFTPPiluCZoZ61sMoCH+MQYKiGUvgN8imOydIi+GsOEPQCbDGYhDIXdBrGMM4K66nnWW9ZJA9BAwoi+HsBNo4Jhmfe0OrmBZeMNgeWA+y6Wr4Bg7QAjuSeTY80wvsSCpZEBkbQ5IlJbalrMlY4WTvDX89GDrGhwuGsr3td2561SPAVS4GKUgEdPeL4ewE8mCvkTXs5nb3BsnJctmaeclwPqI53TFI1cbANWW506WtlqhRFF2g86y4Vdkg0yjqvS3VzGQahiHP58GyoslvkNTe8q7Ke9BaZzs6MVRFlZFh6MKQ5z3EzIpz5bkY2XvXnSK9lZspBZrm28V5Y/nY6EVtdQODVzLt80fo7bQVoadyrUVwOc4V5bNgidT/sJxnuEcgcdkFkWt6Z9YF8a1FbwEABRNKw5IpCX2G/VrsnuIf0cVb6BZEz+Uqi9xyyDKegB4VUmXEzpYwFEcP+10ZSVN6ag849J/RqTRXn8uYR7a4/ez30RsokHpz3ht6lXZKwOT9GiTw66HydNJ0ivVlgECSo8zl4K6QImOWYHCgFKWH9ZeosIvLKXlu6Pp9z89di4UZk5Zc1b/xfnM+gtonVUZy1CpbxjRthQenX3i+hYeg/orihe8/FPT/9nrnnwl3JEsCi9LD8+NU+y9YEjHIkNSfU5XTEEPV5xNYjA7V3Dzf+dub58eLeEeAQ/FG5fCiMLFxRUqLah2Db9OzFcOOxi/o5axE7j20C/iWsZes9B2lU7crfqJH578TwmfAivSCBcy6A8inuOdP3G9x8pxc7VbfafSJegia4dp+KbgnjY1GX8Dc0i7mP8m/43oEu63ODjVNdi77lC9QbdKVACJX6fKuuzzRU/actYIWK85SFKcvpvfpDq/H9cLXfnnWweVfJE87j06/pK+mfbobe3CzFDf2VrVGemPPxemLz0txs0F35/HHzrvlXlHpyZ+kXYT7Tn+VnHzYHyZn/+xvf5xez3vmFqZijRgRHCYt09zEr6T2MLYDfqGurKk19VOLtl4Ymbetyke5hRNfxZ2RK7Q6NhJxSmnBmDN9wKkjD5MCTol5GBawIu1h3s3zHYy8eb6DqQGlb+Kbjp5OVt6O+EmeZMn1Qj60nq4drHBk8lRBoUZA5JbTEXT9OBXkoAyfxNwUWgUsQ+WhaWnAstuqOas90JRPybuq9Z30bmyQ11+GlqFYnjVqWSzs2HFN70JR2Aq8pq9aig08dTR0rCzglGQLu7vzRA/rb67HFXDIolUNpQHLks1NCd+sf2jZKmCo6EGhA8u/R01dWL+9KLRi+1ktRbXPRPQX+qU0fwSNL2E7sGv6dOEPQf6jXvhnOI/DjWmHHUBelambyr9TCynuiZw3euyNZAfF8HxNN/bLU6fTDYYktJ85Nb5wGSqGoAbHMxjTzWAM3vDcZZVNP3l6wfUVFjakBrKbAYxcOTQGzTZvZguGDiMYHKba5xzqhNapJIauXmJBWFpSdz08HvQyBtlDaqyHrt1aU/SkhlPXJHKVUH+MIeNk2GzuikDlgYqmPbPMdxaMQaK34REaqjYGnZq/aYI3LRXctdnbbns9GG4a+Z7hZlSgaWei8E2N6a6O1HQnVnHatWAUMQZJgt7aM6/cqnilu6GQqrOYd2Mn1VVobwZbPMPN6Ixb0t1wjivz3I3/VA0mdwNGVZtQvfEkTNVKZJ9s3o5hJPatVRPSUXgYoeqA0Wh7ou4Vg6SkBiKomjGr5tQzsecr6u7X1C2d6aLjDm+44BUskWkEi6uZGNzQ4BMyeIWsdC5xYoC4mHyciK0uZisn9nBH0brSHUNSx7QYwJgMDvs3kK/sDmwsBkoAmrtXwieou4tAS9U0OZAU4i4GyhmCtuoXA5hrG5o0LwbKCtsuX36nuTZ/5CZCgZYV/ywGapm5QtlioJr+1IbunOhn6pWmKchZ0NTZe44o1c1MLLBM1Y7pLinxJS6DFnqfZux7b6/qKcUtiVoTxU3cLXRN99xcBjcHFt/zdPdp+h71vWboTnEdj2h26MQY6OZULu6uc+cyW3JHlDs4ObhbFu1uvkEjSsP7y6lrGH0bkbtmcDeGFwykWqq/asW568VlLu4bXlwX48bbxYU0XtLFlbeKZ/riUl3FKBrdoNUSK5h39HeCGqb43YXpxjVMzfDX82mUxbmMilD9USF/0GdMgFwFZBWBYL9B/cVgR/+owD/oO3Y/g2p4Fcnw+dIdGxlvJj86FA/6iKNELvyvm72gX3extD/6yy/oZdKwZ5wWju4mc9wrfEEvbmLNQlJNTLuxq6hMh14nhRtf60saxtvN/U2dzG/xppssUKcOrCEnbSnUerN+KeGvm/zcjXX1BdKv694ayqDEIqlXLw1r/klDXynck9IWREk3N+GlRbBqQvh8sc9VdMJpFqmo5obyydoiM3hB+squv80Xw7Mm2Gv4DferJW3+EkfWsl+6uTbrblBErIEX9+WXefOlhuqmXyhZKe7qQUUw564J33yJpmjL5eZLN8Vdu8TwWLRCM3H11UVHxJUODAyUfVVwfzdI1LRZgXeP1ZMPFHzza2dywTG8mKZhlLfa/NpJkN3dyEQ1uW4AG8GPf6uJye2Ht89C/fbx06dvX5V6/rt+Rsp+9e0TVPnn/wE=);lineShape=1;strokeColor=#3333FF;" vertex="1" parent="1">
          <mxGeometry x="193.42071197705764" y="166.6031008377263" width="167.67952830266563" height="150.13130635468406" as="geometry" />
        </mxCell>
        <mxCell id="sSOp6Ibu6axcIfHXp6fO-61" value="" style="shape=stencil(lVfLctswDPwaXTEkIZLAOU3/IzNxak/dOOM4ffx9oSpURNjaTm56YAWAu1hSA9+97h9edkMKr5fz6fvu1+Hxsh/4y5DS4Xm/Ox8udjXw/cB3T6fz7tv59Pb8ON+/PEyR09WP08/pC79nXCxU8oRK4c/8JFGt/x58neOPh+dVfMoUtIuPkSIAcCJJPUBIdRswBsquokIyAoBQih2AR0ppG5Az5bEDjNZD2QaUdAWQtmw3AZUphg5QrKuwDZBI7ABKowCAtu81QK2UAQ8qxKUDSCEFGVSp9sRNOUHTBtB+lTQRRwgIPXE6QmlovQJUSggwNl4XgOCmA9VefFakgAxSKV4BFDQtTJU9IAB5SyDJvmkGPVQh6aWhucnxNqCSuGVNNIKSDPC+iCtpFCC+qo2mBVCbj2zNQ+l7EJMGyGCv3wtYAEyZAUAoupISJE5jM8ZVhojEZ1aZfQ8MSjJei1vWAo3MlMOuB/MlYGQxBApOG7F9YyvF6IbaZgo3UfsmtFBGI2fidACBXmkV69UEFeSVZn09Eat12FKT27SmdQBMmF79VEvzqq2J4F5Ntg4KMkwA+RQgUehLspmraJczYvumLWcAVNs+qn0PReCQjqWNZANk7N92Fhh7Z8r2BBDH3AZm2akZZrDzjMvAGe6jsXobSBWeBWLwTEeFxMX2dnXCyiA++IIsI9pQgqdZoANcOUaBVh/anCwEQElEP5oM+U1+e07NY2/rx+stwrFfjKqFh3Yquz30VNWFo68bjW4gFyZux3M7WH/EF8BrtP1GXLcZxX/y6P//eLv4+M94OhyP82/K+r3/L7FH8z8N3/8F);lineShape=1;strokeColor=#3333FF;" vertex="1" parent="1">
          <mxGeometry x="159.84962519652868" y="159.44785078555844" width="23.153085418445244" height="30.114722574789766" as="geometry" />
        </mxCell>
        <mxCell id="sSOp6Ibu6axcIfHXp6fO-62" value="" style="shape=stencil(lVbJbttQDPwaXQm+/fGcpv8RIE5t1LUDx+ny96WqSjFpadDeZJlDcZkhOaSHt/3T626I/Ha9nL/ufhyer/shfRpiPJz2u8vhqk9DehzSw8v5svtyOb+fnqffr0+j5fj07fx99PBzwkmj2kZU5F/Tm5CIw583nyfA8XC6AfRGwgYQIwUEYOrRABJTAYCWKQYLEIp5G1A1BzGA3Kj3bUBJlLIB1EwCALlQt4CWKMdtgNakJgOQOrtYBQShbL8gnRr4QihUbONEqDMABMrBAwSE1Ciztw9l2z6RVGuvHgQERLlY+wL9MwVXoUipQXsbT19qvBFPsfn2OmtjnRTENp6eKYH4253/SA3oQBtWrHB6gA1TSjgtdyxNJV1xKaRZe1u0bi4H7RnSQaZudaDz468y1gFlrsnSZZ7rtgWIjhZpJvo6QP/uXppcAYCpOiF0CmBahEpyp7SCGqdltQMsMBODrLufeOMXQNKFON6lgNrgtaPaFKBlppx8ExLwv2R302U0T9lXVGlUQM90h9keK08Zzq4Ve8QJ5bUtkG4QBsMiRc+6okwHFcrVa1O3YAMpjEvNqj8FiqCmled9sWzyMO/2dYD4ia3EjSCHJjMJlpAoABbpfIvuGKEGhKbTym1ZhiXSge78Lztl3V78iMeqlCXcD3ukAsm+PoEC8n/HCa0/qKeKPIqrfwdTQodItqzWIwMNOr7TcYPDejxR3NEyU2rL3ulSlyKs6P+es/8A0IeP6/nlcDxOx/ft//7a1lfTpZ4efwM=);lineShape=1;strokeColor=#3333FF;" vertex="1" parent="1">
          <mxGeometry x="158.22807737855783" y="154.6433702718133" width="18.725010644339363" height="26.62651484650337" as="geometry" />
        </mxCell>
        <mxCell id="sSOp6Ibu6axcIfHXp6fO-63" value="" style="shape=stencil(lVfLbhsxDPyavRISqec5Tf8jQJzaqBsHjvv6+3K70MaUvOP2tpZJiUMOh9IkD+/7p7fdxO79cj593f08PF/2k3yamA+v+935cNGvSR4neXg5nXdfzqfvr8/L77en2XL++nb6Me/wa/Hz5MLsxO73spA9lfx35fNifzy8XtlH4mrso5AAe8+UonGQSNltO7Cj4o0D6wkMHCplNg4+UEnbDlKIi3GoJLJtHyKlbDFTBvtHpmz3F6ogRUn/tilikrJtrxXiDjAFZF/a8c3eUQzb9pVbvj/sHahYDZRzF48HeGvq4wkUQT5roWQ5V6mgeJQQYuNJJOAA71aAV5yLER4Rki2xo+QhBt9xImEQqSdpwFWuMmQ1kEdpXfe7ckCgSyVn6xAYgi6ZnC2Eth6qdIkULfOEYZZK6Htfe7MiDIODL23lH0PyWCBH0Ik8OmDIKpO7UzZr78gD9Rp54RqiTeLZ/YUYEXVgdqaCeKqt06lFIAccbnWnCgwSsEEAuMARMitM150Bgxgl7E4VBo0MqjBIMFSE7RjU7kwopEG17zgUTzn2DgFgyEKlDhjQYAs9NcJ6G7g9OaVX+tkBVFo10XVZSpBMohF39xcHMWj3RpulmBq7btM1tuG69oOmFYBWPWE7S7SUaH56R2y5VCMsnCqMhVAzVcC9TKkLaB13t+vcwl072uEbQxgGeqUI7KWXpBkAKlpT0KsERVQzcrmvgIB4XLvyNvtSmqht2Hcs1THEIKGD4OVKFcSv8dgC5wiH2v9e+u/b68fHC+PlcDwuD5Tr//sXiS4trxl5/AM=);lineShape=1;strokeColor=#3333FF;" vertex="1" parent="1">
          <mxGeometry x="149.4461365771374" y="158.90493554266448" width="35.027633613021635" height="12.063667080828964" as="geometry" />
        </mxCell>
        <mxCell id="sSOp6Ibu6axcIfHXp6fO-64" value="" style="shape=stencil(lVfJctswDP0aXTEEQXE5p+l/ZCZO7alrZxx3+/tCdekIkPQ6uWnBI9YHgIM8vO2fXndDDG/Xy/nr7ufh+bof5NMQ4+G0310OV30a5HGQh5fzZfflcv5+er69vz5NktPTt/OP6YRfN1wUyjKhYvj97wuN/PfD55v88XCayUug3Iw8B2ojABRq0QIaFdkGpEStWosKFaBhZGpsADJSygBQia3PKVIt24CcKFgfUsOARjwawJhJ4jagCJViADlSAxpKpWhNmnS2bUBlH9aSembWAZmCjVJp0KQWSSygau6BSa2R2Ci1BEuDQ6AQLOJu5ZYKThZQYCL0vJotoFJCXguJJcS7W+txVZOCB9QKAIlS8gAU1ylPCw0ZaCgjteSdbgggizxoqgHlCpPY+tZAF0QI9vXdlNSgMRXtW05D6iTccjpaQmgqA3K6UXAatOKBSVVodGFlTDklNS8AwAc1ILM3KQVY3rF4pyPiQ6UafFghgVq3eJa4jExqNDoC5V6/6wAdBwuKMsiDWpydSXcOrgPCwqQGR9DUK22UZq1qqx1L9ioq6GSlEBcPiKi+heqC1HAGcfdxRmrIoI8CdI4m67Q2w4jmaPDNVeOGusBYKFgNRVODlofUg3gHhN5u1wH62wLUKwY+pEyjrQ01MoM86DLiOKobTgQmSfaU0x0qgloSPc+aNB0BTIrKebeTtd6q1id18UMuMgRUyrZYWfs5cCF4gxLcfhZ7g3T81ul2+NyHy7q3XpypAl+jn7bcl5T1iqNgOXDvTuus9JEMOFOLetZYIXmNnD8fNTrOxNnJo0xx7SvgzF2wWehvt/1zj9e6vKayOvmCzv/gBen/8vrwfht7ORyPt8vc/L+/vemn281PHv8A);lineShape=1;strokeColor=#3333FF;" vertex="1" parent="1">
          <mxGeometry x="163.39761156694635" y="149.40873555479106" width="15.015161839105986" height="53.45708307328687" as="geometry" />
        </mxCell>
        <mxCell id="sSOp6Ibu6axcIfHXp6fO-65" value="" style="shape=stencil(lVdJcttADHwNr6jBYNaz4/zDVZYjVhTJJSvb7wOFoSyAZLtyo2k0sXUD0CAPb/un190Qw9vlfPq6+zk+X/aDfBpiHI/73Xm86NMgj4M8vJzOuy/n0/fj8/T369PV8vr07fTj+oVfE4479XJFxfB7eiPU4t8Xnyf7w3i8s4+VajL2nCiGbYAkatkAIlOv24DElK2H2CmCkHKizgaQItW2DShMJVhApyYA0EhsDrlQByFVTbobQEkkfRvQMmUbUs0koKy9UbceWoMeOAQK1kUPsBG9U7VZd6ECyqQxRculXiiAmHqm0iygEaOsI0WbtQaZMqhro+To+l6HdUTy9FMXBbUu+E5oEv8+sU4OzXFRJuShFhIHUDYh+mWqDsAfeUhi2dQpAG5oDmI11wpVEFJjYsfXm2y3+lAtNxqeTNrq0j0gF0imHH1IjACZWrUAlS1gnxJBXA51Hj1bkmsLjUIF9VnCN0CcVbsVUnOSy3Mr1wHKTaeHOs+qdYBQWmgU5dCWc6ZjauSZCHeAhjxEYl6EBDzUvpiVlQTpocwL5K6sDPqwDgDkK4HEAlSDGWy5tMihZLypC0Xb6cxwCOipEGzj9BMV5MDFHw+62lFZb4v/Zh+oghQWQ4YDJdDn4NdJm/W3Ye4qWimADoR5SN/qCZNlX36BxYx+3EUSsHUSFSsBhmQoftRpIZHo/YGElyzrCRi8PeiT3piyCAdcIkq0En22oDjc/CqI+Jj6z6v5Y3t9eD/RX8bDYbrw7//vT3p9Nf0ckMc/);lineShape=1;strokeColor=#3333FF;" vertex="1" parent="1">
          <mxGeometry x="149.4477096412145" y="142.66206373177533" width="20.359403814423786" height="30.043850129020143" as="geometry" />
        </mxCell>
        <mxCell id="sSOp6Ibu6axcIfHXp6fO-66" value="" style="shape=stencil(7VrJbhs5FPwaXQnuyzmT/EeAOGNhPHbgONvfT3EEdsRiq9oBcsxNll+J/bZ6C/sU3ny+f//p7uTt55fnp3/uvp0/vNyfwl8n78+P93fP5xd8OoW3p/Dm49Pz3d/PT18eP1z+/vS+S/ZP/z597b/w/YKzxoUO8vbH5YtWjSv/f/PuIv9wfpzkbZzlg7FNyttJvhZTgpJ3JO9MkvIhT/IlGVtvyzvjZvlcTUy35b1Js77ZmSzko4ltkk/JBPH8xfhZ39iMFfZ3MKibAdoBzps6axyKiVkAMrsgOFOFCq6aWieAz6ZYYVO4dD4BZnYKEEwtE8DpKMUDWD8DEBbKzZXjCHaL4oTgh4pboA4778tnE9IcSCYJt0Vr8qxy1HEHr82B6mWeJWvqHKjIDPE8COM2W3Rjgl35jH9nlhcuzpGDyEmHIW0L65tE3hdvfCN7Svk8jt+IxTTh39LY/g5EIQ4Ar1FeIvGs8FiNHEEwaVOAbPwcQj6Nn9gHFI5p3yR51ToeYKMKb5qIimaHihsAaSDMCkCeAUgM5TcAymylqB3dAZRo4AKR+bASRXYKgzz2AdbEObSTH1XiVuxRaKAoKE+XYBIpnU1TJyByHFspOAlgPwTJd2XJ/16nhFlzG3y1AfyojbcAmZR2I+BvAepMYdFKx0EHP+d0aCZpK1GdCnVE1z4AHNEYoGgYNEZKo5oXBQjLCcVkpUNkYu0AwRpouMrSYDR1Qh7EeKW0yriChmXxgxUnIOPoBHi6iliqcYmlINtIMB/nQxoFYJ9mNmK8SlFVoJszgTpDL7sqAJJnP4QDAMWSlTkNAFEl6oOqcVA6zjTjN7vtA4KJVIGKqcLTDY6LDFBE1jIPJAA4pUMZJfAKEJWnK48AUNoqs6LIVgY0kQ8AUK8Ex6loBaCRpzVVApCINeBKL5Umbg2bK2+Zleg+ROPUCXkhgTjGiH3ANgi+FhAGk772kZYZ4EhpxyQQtgy5maJUUOA4naJcH6wsu9CBBuIefOqEwBuAHt6iPiBFPZHAQQIlnrmPUhTNzpLTkgQqbz06zShPtxEI10SmdGhcFDtVijrdU3TJ6apT9NcBVKcxcwnHObssb1BGVXfSiWmpik15rvJUhrlUNa6IPke9dJSrAxTqOD8SunXFZH3MmpVOyCnd3rtlhZPECWiY4tIKNAX403z/ab5/Y/O9WOm3Nt9lbY2tzIeKyKFY8pI1kKLcSyfZMFXPmxDM+F6dsALisNtNAA3Uzji1a3EjmK82IWoeAM0EclyQVbE0Xi2jBMmV19KS+SSLHIKvUqHWOy/kg6clXxn0fCtFaQvnol4jFl7/uG37sg8I6x5XzXGpjbXwzz1uEdmA8pQtyatJtNe/2aZFVh9EfplN2mTPGrf+8cpAahHd+YR2705mJ7oKv/pMmLR3qHNpQFQEcQJMwrtfq+8P0sjFDRCG2fYBnq8Delioa6XGbQayUw3fLnMqgIdVYLiwdA3oVISn4VeKbMSWVzzMk0DKUudsAl2Nefn7ifukvsNXVyCsMPjGqVRggjy4OoycyQdXk5FdfHD1Gdk+B1erkSMC8qpZiGxPtN/qAiGMTcqVfFCZv+irRxjPA0kfB6Q87UmuBo79iOYDjgF0wsETueVyW2tsuR88sOhSwg88tk1br4yIX7/MP5LHh59vDnw8PzxcXjy4/j+/aYCvLm8phLf/AQ==);lineShape=1;strokeColor=#3333FF;" vertex="1" parent="1">
          <mxGeometry x="330.0531902953596" y="87.87376756214212" width="69.28055321237639" height="79.1757449878994" as="geometry" />
        </mxCell>
        <mxCell id="sSOp6Ibu6axcIfHXp6fO-67" value="" style="shape=stencil(7VnJchQxDP2auaosyeuZ5T9SRSBThIQKYft7ZKbctOXpl+JKcZt0pG4tT0+yfNJXX+5uPt+eJHx5fnr8ePv9/O757qSvTyLnh7vbp/Oz/Trpm5O+ev/4dPvh6fHrw7vL359vumT/9enxW3/Dj4teoMBdScLPy4PUKMffT95e5O/PD5N80lleKMixPJPUST4mquVYXqmVSV4zlXYsX6jO9msgBfKsFGaDJFIMQCGTzBZ1n0CEuFGZQ8SVQjpWMJ+TzAqRcgYKhdLsNDMp+IIypdnpSgpc0EQyW5Qoo6RVjwpzCchHsyfNMYUgipHKnAMesL0uX4nzJB+gPcnCV528ggQky4+XF/T+QiU6eQYgzQbS4OQDwGjOo6Z28gAPJQy4/IlnAvEskXTGQ6GAijJTmv1lIVWgYABqvmYEeFwD5dkigyiCUBVfZCpUgQ81+rqPlrQKFDKFuQgMhhE4Xcuo8q3KMmWQttqIZx8MKAnUcQsU5zxY5hMIa2OKMzAslRkpCJUZqRYGBVFqSjJzl70iAafNJK/QIDtaWJ0PLROD6qyJomPHBumlqqcje6IIfOpN6nAEiTMFdl9gYqwQZiwV3Mf7F1xJG2kitOpoGXtooAJS3wdLgp22V5z7QoRtzRSqc1ohWi3Tru8UxdCw5r98gRE0MrVFISJoGAmwdzogk5beZmENKHELt1riBFXcxhE7tDImAdc+ew0Ck4wE1H2BMc3oGOp2UYrIh20A2RRk8Mh1hTg62o4qX1BwPTdXOCQ1G3xn8OVtLLiuYFgSr5BQWIsHX8aTZ6uLDw1Doy0FxHAyMYXmSGAjnkOFGUsvsEbvBk6hjGn3SGGlSoilbRTZ0BqoIpPKGBR28I6AKnuD4kUB9DjDEi8mFYxWT2Rt1OBRAeXiwwrzoOPfu8TBAjKFpUQbqgel6jJteUD1ED3z5YbBl/zByiquISzZoJu9QkJfKH5u7SSAoLGwt9V0wfB2s32f9hEvNarR5wEeoUPwxxNjYzRs/L1GN8oBXEezP4pTnImmdyWcazcA2SsyCmzwTWvn1lFvd8fulnGrTn5et0n0/2D5f7D8NwZLU/BhLdCkPok6eCvuWuxH14YPvBYlh6WGW7Up6OyDgSWjxCW/0bQ8CNojRCpLTymYBNyONdswgPLAPnFJBrqur2eaNykmyEuWV9eqtcJhwJAT5kwrw5q2IDqakY08ryuIrzgJFIFJfRR2O6kIt145+xbEDOf1vuZb9rgB+ND3iLMPHEagjxaVRRYFtNlcCsgUGshD33HJ4gNSSCPqOwUBYY2y7AYZDmXaxlS4KSjc3PUrBrcOjfgLOta3m0KBmztZhjLBRwgDsxssJcINqrA/ykkdnfv6TFb9CdkqDo59yUNDjfmASSxjUN0UClzDN38EjwxpKXuSiRn20OQZIG1HkOvIW4iYx+XRgbzruHnjnAN5nXGaFV/LjOPRJh/hTdQyHJp8A6xtTcDZnzDmFvsTPEjzEs8EO6Hxgnr7K7A/LO+PcG8V/NrK4s8gX2HMsbv8ohJbDj0Zk+/f38W+JG8//lz8vj/f31/ujff/9xfF9uhyyaxvfgE=);lineShape=1;strokeColor=#3333FF;" vertex="1" parent="1">
          <mxGeometry x="392.65578161374333" y="79.26625717951504" width="89.90687609909423" height="42.30384921230677" as="geometry" />
        </mxCell>
        <mxCell id="sSOp6Ibu6axcIfHXp6fO-68" value="" style="shape=stencil(7Vnbjls3DPwavxISqetzmv5HgGy6Rre7wWZ7+/vy1NWJNToep0CBvuTN69VYIjkcUtTJ3n15/PD54aThy9vry88Pv58/vj2e7IeT6vn58eH1/OafTvb+ZO8+vbw+/PT68uvzx8vfnz9sK7dPv7z8tv3CHxdcj5LThtLw5+WbaGL29zc/XgBP5+crQOsS8wwIUjoBZEl1AjTRSNYHCWFaX6Tp7fU1iWZY/49Jh+uLG9BxPTl/MSk6ra9i5Py5SwvoIA0EYNJnB8UsRixIXRKEoEkrBJCkzEFWlUJssD5CugOKFMIKS2JtAliQTo6kfZx4B2QJJAyapc1GWxt+Owao2AxIKrndBsSOgU77nseAKtFmgHOLHMnjGuIEyH4kBjDROXA5SyfUiFHazCWnYyDZ49yEwJUkmRjdMQyeT41QqUufTd7ylaz3A8EGtUoh6eNO1ZmrtUsmOzgxdE7QFodEHZM7igHAJBKnpjh8vgPcaJI+qYgWBLAEzVFqQ0AnO+QifXar63IgRpciMSEgkiNVl5S27MCFGBK0tfHNMcCZCW6tI/a3pNsiAgKxoejQoB1QhnQeAzzSBQFMxorXgopeSoRLnr8VAE4N4iUHZLDBpDFq+A4JAYFk3GYDuFUpvR3QgRqR1+goHWzYf+JWpDGnA6/qziVDgLEdXHiXHSigonZvRyIZ58Joi9EscO71ahiHzluxAhlXqMw41cIM6G40KettiXRXqku1jGqzAzJ1q8tMnDOuVyrGzqU0u7X3e/lQ5h1iCDQhcsWa1XlRdDVWQ4ASbuSEPWJvowm8BVBFNyWScg4IM117oRcBByQIRB6MPwa40IHRicq3ewndarSDy20k2BUgshwNQ3uvAUyYFC8PDmBxcGGqEY0O7EgJrw8OoNLn+QJGF153M9bdLYN43YUC0fkVbrsygQ2dV0XFMuqAeqcENQQwLzk1UloAPEXrkqKJsXW/tF15qfIUTRHjUNkOzhw4UqFeysvV2FOUVUW3AfU+cUBZjDZuQ10KhI1Q/jeArRWAfLjTnTSs7F7kmC7VvPQ/jd77fAesu3U0/N8b1++NKwL+/8Z12YE2roozxLbr+TGgYSfg1GCRrnXU/R3A5b4s1OiRTu08cLUggNU4V768AFgVzWGRmUjrdMpLpxtGSt2a2gG9e6Apagm7GXdrY0O4NkaxVwAjGaeGo0qXykyOFNtya6p0OBN1ybgyrDqOwzKmsFEljzcY0n41XqqEesv42ssFazQC1ugaKbXDqK/7AG7vVI5DgJ2SixprSwwvZF6BWfZn5JB3HezeUPFikvl5OtbOVKm4OCGgp09GFTV6TzRHLIUx2L01KI5znlmhHHWfBpiOKx9RVnwz8cyLJM/898CrX+N4DCh4L3GrlCTmNtOEZ43MAQlHlDFSojoPoLKVewoMdUrvNVXQwQSqXaWv61l3UROWkEAHE1sZNlifye+7ruGzD/Wnt71wQU/0ft7Xuk/Pv92HIMCBPwV0fJxwRrD6dDV32RFKp9YHW+gg+k0jZvm68/7plzrcwejjmwMCABLl3XYbjwhgLyDbfb8goLIjJWxr7wFsDPG+9Ui6vGneMXoZ621uZZH+tw/X3wDwD1/fyT+dn54uz+zX/8d3df/q8iZv7/8C);lineShape=1;strokeColor=#3333FF;" vertex="1" parent="1">
          <mxGeometry x="149.934060122961" y="275.70765529681876" width="49.48634256338596" height="81.96142071504835" as="geometry" />
        </mxCell>
        <mxCell id="sSOp6Ibu6axcIfHXp6fO-69" value="" style="shape=stencil(7VnLbhw3EPyavRJ8NF9nx/kPA5YjIYpkyHIS/71rsuB4WJwtwccAvkm7Xcsmu6u72Lykd1/uP3y+u0T/5fXl+c+7fx4+vt5f0m+XGB+e7u9eHl7x1yW9v6R3n55f7v54ef769PH6/+cPm+X211/Pf2+/8O8VZ8VZ3lDRf7t+klws/33w+9X+8eHpaB9cbWRf7bZ9Kq6nyT47r+zN+TLZF1eDsPfOZn+6K/22fayu98k+BNe9AGR2KJizKAD4PQJUF/JtQGiuzi5FP9Y8B2RX/AyI45TPAfjaZkCWpxT8OJMd0GRadJfmKCMuWSzQXJrPKMFFcUbVtdmflF1oyj7NR5qqM+F/dXE+oNTHirfsw2Rv0Xnpf5qz1JBEVdkTy0znUBsk3FnmZbwQ4DRvIIPHYsNIoUg8riPm5wBzeS4sxUsmh8K8KXBJ8aZzkAuKmXAJLAnzHkqTWQqWhPmUqndNpN3GkjkONbqmylfgxKg2yH2rPmZyqcg4IPErAarcAzIzzC41cFkUPKRamCPd4tjVOSBzpFsaVfwUUPB7M/2bjVCeAxCHyIAi4oAwEYEA6AoAAi2ArFzqXIMB8BrQIp9SFqmxrVA5Dl0VGfROzwAVhxqcX1ZQ3RyATqkRZONBHHpjgKnCakxRABQfanZxWSGpPZTllIKu3XXogwOgCgLVtriEY1VxaCyqAFAUxdeFkg+lTQGqy+RSkw2uoz/MqdG9PNaeR2HcAUEqyeChiuZAdJBaHBN8IhXTu8tKxSCwnQFNyRhQbg71wctzxKJ8tiVENrXCrN42IRIckW20iTY07y0ANS0AFIUA8LRCldUVALpk9CJFNzZNjOj7JzfzlUKdR/m8FQcqNADI3PDj6yNAnBKyj08pu6oAifUMNh0UhYx7EAByBeOW0qu8y2wAIml7yyUOXHPtjU3TCn3U21sc5cBpqY7AcfJ1zYc2CHkEiE0j+WypM0VzOi6bDpqivEKT2bpRlE4Jqk9dIPJSv6uUWAD0hdOqLeKU/EIgdef7aQBSI0UGKPWNFbhU2lCa54DEuhIsD+peWRdd2bU8WSgKJ1Uu/RKiv4To/0eIVmT/ErimChm2SMcK5ao23bkIoJ4rqVvTmAEcKKokHNKbGjtWUDp0m2MsADW9ynUk86EImChk1sd0awegxYg9GC4EBLDRiM/HCGvgkvPiWFNeNh1kaiRkDq0AKS1cip1HUlv+CorGMprsYXYiB0aJuyhYbmpu2nlOiToSFaDwFWUrnmoOZ+xS0akRAs9/Cm5NSvOxEChhjJzOs9sVGgw22U6MtU+2kVrnQWAVkL2romL40S4Po1MlKJfplZmUVsst1IKUk34I5sNoWTV0fzK6VhLDc2dL5qr4/b0FHEbvqu1EHtZtLyzC3ljxbMNykW+Fr9DRZL51nkxgR2piGuJokvsdvckuGDI/ZmwPLqJch73B7IAoLz2IWSWX/LiD3ypEtELTpTHzlCEPOXNee/0Y7uxJMQTWuf1ygQnyWmiei4qXzzGgIKkvr2tKHpebg71qf4WLon5xQwnJbK9y2trovof9is4E+1rIXtU49Ht6yQhS48A+cbwUx2BPQjDIaTjsSbDotof9lkD2sqbs6f7Dvqv9VvY/6fz82VfwN+3xx48n908Pj4/XF/vj9/xEj4+uz/vp/Xc=);lineShape=1;strokeColor=#3333FF;" vertex="1" parent="1">
          <mxGeometry x="143.1179052578873" y="347.48289081060636" width="58.79845286984187" height="128.38726954758943" as="geometry" />
        </mxCell>
      </root>
    </mxGraphModel>
  </diagram>
</mxfile>
